<svg version="1.1" preserveAspectRatio="none" xmlns="http://www.w3.org/2000/svg" width="500" height="500" viewBox="0 0 500 500"><rect width="100%" height="100%" fill="#E74C32" fill-opacity="1"/><svg viewBox="59.8682 137.7841 386.6324 129.2957" width="333" height="111.3602173537448" x="83.5px" y="194.3199px" xmlns="http://www.w3.org/2000/svg" xmlns:xlink="http://www.w3.org/1999/xlink" preserveAspectRatio="none"><defs></defs><style>.companyName {fill:#EFEFEF;fill-opacity:1;}.icon1 {fill:#281817;fill-opacity:1;}.icon2 {fill:#EFEFEF;fill-opacity:1;}.icon3 {fill:#DDAC77;fill-opacity:1;}.icon3-str {stroke:#DDAC77;stroke-opacity:1;}</style><g opacity="1" transform="rotate(0 59.8682 227.0798)">
<svg width="386.6324" height="40" x="59.8682" y="227.0798" version="1.1" preserveAspectRatio="none" viewBox="1.12 -30.6 301.96 31.240000000000002">
  <g transform="matrix(1 0 0 1 0 0)" class="companyName"><path id="id-D6z1nYkh15" d="M7.08 0L6.88-3.92L10.36-4.88L10.36-22.20L7-21.92L4.04-18.36L1.12-18.60Q1.12-21.92 1.44-26.96L1.44-26.96L26.48-26.96Q26.80-21.92 26.80-18.60L26.80-18.60L23.92-18.36L20.92-21.92L17.64-22.20L17.64-6.48Q17.64-5.52 17.76-5.24Q17.88-4.96 18.44-4.68L18.44-4.68L20.92-3.20L20.76 0L7.08 0Z M28.40 0L28.20-3.80L30.68-4.52L30.68-23.68Q30.68-24.56 30.56-24.82Q30.44-25.08 29.92-25.40L29.92-25.40L28.16-26.32L28.28-29.36L29.52-29.56Q34.80-30.52 36.92-30.60L36.92-30.60Q37.28-29.64 37.44-28.52L37.44-28.52L37.44-19.40Q39.64-20.40 41.18-20.86Q42.72-21.32 44.24-21.32L44.24-21.32Q50.48-21.32 50.48-13.72L50.48-13.72L50.48-5.84Q50.48-5 50.60-4.72Q50.72-4.44 51.28-4.12L51.28-4.12L53.20-3L53.04 0L42 0L41.80-3.80L43.76-4.36L43.76-11.96Q43.76-13.72 43.66-14.46Q43.56-15.20 43-15.60Q42.44-16 41.12-16L41.12-16Q39.84-16 37.44-15.56L37.44-15.56L37.44-5.84Q37.44-5 37.56-4.72Q37.68-4.44 38.20-4.12L38.20-4.12L40.16-3L40 0L28.40 0Z M63.92 0.48Q59.24 0.48 56.70-2.36Q54.16-5.20 54.16-10.20L54.16-10.20Q54.16-13.68 55.40-16.18Q56.64-18.68 58.92-20Q61.20-21.32 64.24-21.32L64.24-21.32Q68.76-21.32 71.18-18.44Q73.60-15.56 73.48-10.24L73.48-10.24L61.32-8Q61.88-6.32 62.90-5.54Q63.92-4.76 65.60-4.76L65.60-4.76Q66.76-4.76 68.36-5.10Q69.96-5.44 71.60-6.04L71.60-6.04L72.52-2.08Q71.04-0.96 68.68-0.24Q66.32 0.48 63.92 0.48L63.92 0.48ZM60.92-11.96L66.92-13.60Q66.84-15.12 66.06-15.82Q65.28-16.52 63.88-16.52L63.88-16.52Q62.72-16.52 61.68-16.20L61.68-16.20Q60.84-14.24 60.92-11.96L60.92-11.96Z M88.84 0L88.64-3.92L92.12-4.88L92.12-22.20L88.76-21.92L85.80-18.36L82.88-18.60Q82.88-21.92 83.20-26.96L83.20-26.96L108.24-26.96Q108.56-21.92 108.56-18.60L108.56-18.60L105.68-18.36L102.68-21.92L99.40-22.20L99.40-6.48Q99.40-5.52 99.52-5.24Q99.64-4.96 100.20-4.68L100.20-4.68L102.68-3.20L102.52 0L88.84 0Z M110.60 0L110.40-3.80L112.84-4.52L112.84-14.24Q112.84-15.12 112.72-15.38Q112.60-15.64 112.08-15.96L112.08-15.96L110.32-16.92L110.44-19.92Q111.12-20.08 111.60-20.12L111.60-20.12Q116.44-21.12 118.76-21.20L118.76-21.20Q119.12-20.16 119.44-18.60L119.44-18.60Q121.84-20.48 123.52-21.20L123.52-21.20L125.80-21.20Q125.76-19.68 125.60-17.90Q125.44-16.12 125.20-15.04L125.20-15.04Q123.76-15.12 123.08-15.12L123.08-15.12Q121.40-15.12 119.60-14.92L119.60-14.92L119.60-5.84Q119.60-5 119.72-4.72Q119.84-4.44 120.36-4.12L120.36-4.12L122.76-2.84L122.60 0L110.60 0Z M133.16 0.52Q130.44 0.52 128.80-0.98Q127.16-2.48 127.16-4.84L127.16-4.84Q127.16-8 130.34-9.80Q133.52-11.60 139.60-11.84L139.60-11.84Q139.60-13.72 139.30-14.62Q139-15.52 138.22-15.86Q137.44-16.20 135.84-16.20L135.84-16.20Q134.20-16.20 133.52-16.08L133.52-16.08L131.88-12.84L128.92-13.04Q128.24-16.24 127.96-19.68L127.96-19.68Q130.20-20.44 132.86-20.88Q135.52-21.32 137.84-21.32L137.84-21.32Q142.08-21.32 143.92-19.66Q145.76-18 145.76-14.16L145.76-14.16L145.76-5.80Q145.76-5.08 145.90-4.80Q146.04-4.52 146.52-4.24L146.52-4.24L148.12-3.32L147.96-0.84Q143.32 0.24 140.64 0.36L140.64 0.36Q140.56 0.12 140.40-0.50Q140.24-1.12 140.12-1.68L140.12-1.68Q138.56-0.68 136.70-0.08Q134.84 0.52 133.16 0.52L133.16 0.52ZM135.84-4Q137.44-4 139.72-5.08L139.72-5.08L139.56-8.12Q138.60-8.20 138.28-8.20L138.28-8.20Q137.20-8.20 135.76-7.98Q134.32-7.76 133.48-7.48L133.48-7.48Q133.36-6.96 133.36-6.52L133.36-6.52Q133.36-5.32 134.02-4.66Q134.68-4 135.84-4L135.84-4Z M155.84 0.52L149.68-15.44Q149.24-16.52 149.08-16.84Q148.92-17.16 148.48-17.72L148.48-17.72L147.80-18.60L148.00-20.92L158.08-20.92L158.48-17.52L156.16-16.96L159.80-6.64L163.32-16.12Q163.40-16.36 163.40-16.48L163.40-16.48Q163.40-16.84 163.04-16.96L163.04-16.96L161.16-17.76L161.52-20.92L169.12-20.92L169.52-17.68L161.60 0.08L155.84 0.52Z M180.60 0.48Q175.92 0.48 173.38-2.36Q170.84-5.20 170.84-10.20L170.84-10.20Q170.84-13.68 172.08-16.18Q173.32-18.68 175.60-20Q177.88-21.32 180.92-21.32L180.92-21.32Q185.44-21.32 187.86-18.44Q190.28-15.56 190.16-10.24L190.16-10.24L178.00-8Q178.56-6.32 179.58-5.54Q180.60-4.76 182.28-4.76L182.28-4.76Q183.44-4.76 185.04-5.10Q186.64-5.44 188.28-6.04L188.28-6.04L189.20-2.08Q187.72-0.96 185.36-0.24Q183.00 0.48 180.60 0.48L180.60 0.48ZM177.60-11.96L183.60-13.60Q183.52-15.12 182.74-15.82Q181.96-16.52 180.56-16.52L180.56-16.52Q179.40-16.52 178.36-16.20L178.36-16.20Q177.52-14.24 177.60-11.96L177.60-11.96Z M191.40 0L191.28-3.68L194.08-4.52L194.08-23.68Q194.08-24.56 193.94-24.82Q193.80-25.08 193.24-25.40L193.24-25.40L191.48-26.32L191.68-29.36Q192.48-29.52 192.92-29.56L192.92-29.56Q198.20-30.52 200.28-30.60L200.28-30.60Q200.68-29.68 200.80-28.52L200.80-28.52L200.80-5.84Q200.80-5 200.92-4.72Q201.04-4.44 201.60-4.12L201.60-4.12L203.56-3L203.40 0L191.40 0Z M222.56 0.52Q217.92 0.52 215.36-2.34Q212.80-5.20 212.80-10.24L212.80-10.24Q212.80-15.48 215.54-18.40Q218.28-21.32 223.04-21.32L223.04-21.32Q226.64-21.32 230.76-19.68L230.76-19.68Q230.68-18.52 230.40-16.62Q230.12-14.72 229.80-13.12L229.80-13.12L227.12-12.88L224.64-16.04Q223.64-16.24 222.40-16.24L222.40-16.24Q221.40-16.24 220.56-16.12L220.56-16.12Q219.64-14.36 219.64-11.16L219.64-11.16Q219.64-7.88 220.80-6.30Q221.96-4.72 224.32-4.72L224.32-4.72Q225.44-4.72 227.04-5.06Q228.64-5.40 230.32-6.04L230.32-6.04L231.28-2.04Q229.68-0.92 227.30-0.20Q224.92 0.52 222.56 0.52L222.56 0.52Z M233.64 0L233.44-3.80L235.88-4.52L235.88-14.24Q235.88-15.12 235.76-15.38Q235.64-15.64 235.12-15.96L235.12-15.96L233.36-16.92L233.48-19.92Q234.16-20.08 234.64-20.12L234.64-20.12Q239.48-21.12 241.80-21.20L241.80-21.20Q242.16-20.16 242.48-18.60L242.48-18.60Q244.88-20.48 246.56-21.20L246.56-21.20L248.84-21.20Q248.80-19.68 248.64-17.90Q248.48-16.12 248.24-15.04L248.24-15.04Q246.80-15.12 246.12-15.12L246.12-15.12Q244.44-15.12 242.64-14.92L242.64-14.92L242.64-5.84Q242.64-5 242.76-4.72Q242.88-4.44 243.40-4.12L243.40-4.12L245.80-2.84L245.64 0L233.64 0Z M259.76 0.48Q255.08 0.48 252.54-2.36Q250.00-5.20 250.00-10.20L250.00-10.20Q250.00-13.68 251.24-16.18Q252.48-18.68 254.76-20Q257.04-21.32 260.08-21.32L260.08-21.32Q264.60-21.32 267.02-18.44Q269.44-15.56 269.32-10.24L269.32-10.24L257.16-8Q257.72-6.32 258.74-5.54Q259.76-4.76 261.44-4.76L261.44-4.76Q262.60-4.76 264.20-5.10Q265.80-5.44 267.44-6.04L267.44-6.04L268.36-2.08Q266.88-0.96 264.52-0.24Q262.16 0.48 259.76 0.48L259.76 0.48ZM256.76-11.96L262.76-13.60Q262.68-15.12 261.90-15.82Q261.12-16.52 259.72-16.52L259.72-16.52Q258.56-16.52 257.52-16.20L257.52-16.20Q256.68-14.24 256.76-11.96L256.76-11.96Z M277.72 0.64L272.32-15.44Q271.88-16.52 271.72-16.84Q271.56-17.16 271.12-17.72L271.12-17.72L270.44-18.60L270.64-20.92L280.76-20.92L281.16-17.52L278.96-17L281.68-7.28L285.64-20.60L289.76-21.16L294.32-6.92L296.88-16.12Q296.96-16.36 296.96-16.48L296.96-16.48Q296.96-16.84 296.60-16.96L296.60-16.96L294.68-17.76L295.08-20.92L302.68-20.92L303.08-17.80L296.20 0.20L290.44 0.64L287.12-10.48L283.48 0.20L277.72 0.64Z"/></g>
</svg>
</g><g opacity="1" transform="rotate(0 195.1896 137.7841)">
<svg width="115.9897" height="49.2957" x="195.1896" y="137.7841" version="1.1" preserveAspectRatio="none" viewBox="20 66 160 68">
  <g transform="matrix(1 0 0 1 0 0)"><g><path d="M147.973 89.994h-4.358c-1.323 0-2.397-1.084-2.397-2.42V76.691c0-1.649 1.326-2.988 2.959-2.988h2.794l1.002 16.291z" data-color="1" class="icon1"></path><path d="M147.973 89.994h-4.358c-1.323 0-2.397-1.084-2.397-2.42V76.691c0-1.649 1.326-2.988 2.959-2.988h2.794l1.002 16.291z" opacity=".12"></path><path d="m57 107.274.031-.022a11.389 11.389 0 0 1 6.437-2.041 11.184 11.184 0 0 1 6.492 2.041l.031.022h78.063l.031-.022a11.364 11.364 0 0 1 6.712-2.038 11.19 11.19 0 0 1 6.264 2.038l.031.022h10.773v-8.92c0-.397-.04-.785-.118-1.162-.478-2.379-2.404-4.261-4.866-4.599l-18.907-2.599h-4.358a2.408 2.408 0 0 1-2.397-2.42V76.691c0-.265.035-.525.1-.77v-.003a2.962 2.962 0 0 1 2.859-2.215h2.794v-1.515c0-2.93-2.354-5.304-5.253-5.304H32.627c-3.417 0-6.192 2.798-6.192 6.251v34.139H57z" data-color="2" class="icon2"></path><path d="M76.27 119.291h65.325a1.51 1.51 0 0 0 1.501-1.515v-.947a11.632 11.632 0 0 1 5.555-9.947H69.394c.192.118.38.241.565.37 3.067 2.147 5.093 5.766 5.093 9.774v1.036c0 .679.545 1.229 1.218 1.229z" data-color="3" class="icon3"></path><path d="m30.236 113.419 20.551 2.841a1.222 1.222 0 0 0 1.363-1.058 11.62 11.62 0 0 1 5.449-8.321H26.436v2.138c0 2.22 1.623 4.1 3.8 4.4z" data-color="3" class="icon3"></path><path d="M160.497 106.881c.191.118.38.241.564.37 3.057 2.139 5.051 5.748 5.051 9.769v.755c0 .419.165.798.44 1.071.27.275.645.445 1.061.445 2.349 0 4.253-1.922 4.253-4.294v-8.116h-11.369z" data-color="3" class="icon3"></path><path d="M180 129.884c0 2.273-35.817 4.116-80.001 4.116C55.817 134 20 132.157 20 129.884c0-.711 3.508-1.382 9.681-1.964h140.637c6.174.582 9.682 1.253 9.682 1.964z" opacity=".28"></path><path d="M167.612 119.414c-.435 0-.843-.171-1.147-.481a1.615 1.615 0 0 1-.475-1.157v-.755c0-3.864-1.869-7.478-4.999-9.668a11.08 11.08 0 0 0-6.197-2.016 11.21 11.21 0 0 0-6.641 2.017 11.531 11.531 0 0 0-4.936 9.476v.947c0 .903-.728 1.638-1.622 1.638H76.27c-.739 0-1.34-.607-1.34-1.353v-1.036c0-3.848-1.884-7.464-5.041-9.673-1.913-1.335-4.141-2.039-6.422-2.019a11.26 11.26 0 0 0-6.369 2.019 11.52 11.52 0 0 0-4.829 7.867c-.102.738-.778 1.259-1.5 1.163l-20.551-2.841c-2.226-.307-3.905-2.251-3.905-4.521V73.135c0-3.514 2.832-6.374 6.313-6.374H141.72c2.964 0 5.375 2.434 5.375 5.426v1.638h-2.916a2.841 2.841 0 0 0-2.738 2.109l-.004.018a2.87 2.87 0 0 0-.096.739v10.883c0 1.267 1.021 2.297 2.275 2.297h4.358l18.924 2.6a5.906 5.906 0 0 1 4.968 4.696c.08.386.12.786.12 1.186v16.644c0 2.436-1.962 4.417-4.374 4.417zm-13.018-14.325a11.318 11.318 0 0 1 6.535 2.062c3.195 2.236 5.103 5.926 5.103 9.87v.755c0 .376.143.725.404.983.259.265.605.409.975.409 2.278 0 4.132-1.871 4.132-4.171V98.354c0-.384-.039-.766-.115-1.137a5.662 5.662 0 0 0-4.763-4.503l-18.907-2.599-4.341.001c-1.388 0-2.518-1.14-2.518-2.542V76.691c0-.266.034-.53.1-.786l.004-.018a3.085 3.085 0 0 1 2.977-2.306h2.673v-1.393c0-2.857-2.302-5.181-5.132-5.181H32.627c-3.347 0-6.07 2.749-6.07 6.128v35.884c0 2.148 1.588 3.987 3.695 4.278l20.551 2.841a1.104 1.104 0 0 0 1.227-.954 11.768 11.768 0 0 1 4.932-8.035 11.494 11.494 0 0 1 6.505-2.062h.071c2.313 0 4.556.712 6.49 2.063a12.066 12.066 0 0 1 5.146 9.875v1.036c0 .611.492 1.107 1.097 1.107h65.325c.761 0 1.379-.625 1.379-1.393v-.947c0-3.868 1.884-7.486 5.041-9.678a11.457 11.457 0 0 1 6.578-2.061z"></path><path d="M146.974 72.188v1.515h-2.794c-1.371 0-2.524.94-2.859 2.215a2.825 2.825 0 0 0-2.747-2.215H26.438l-.003-.003v-.566c0-3.453 2.774-6.251 6.192-6.251H141.72c2.9.001 5.254 2.375 5.254 5.305z" data-color="4" class="icon1"></path><path d="M141.719 69.387H32.628c-3.42 0-6.192 2.798-6.192 6.251v-2.503c0-3.453 2.772-6.251 6.192-6.251h109.091c2.902 0 5.253 2.374 5.253 5.304v1.515h-.093c-.457-2.457-2.593-4.316-5.16-4.316z" data-color="2" class="icon2"></path><path d="M171.621 97.863v2.503c0-2.907-2.129-5.37-4.983-5.761l-18.907-2.599h-4.358c-1.323 0-2.397-1.084-2.397-2.42v-2.503c0 1.336 1.073 2.42 2.397 2.42h4.358l18.907 2.599c2.854.392 4.983 2.854 4.983 5.761z" data-color="3" class="icon3"></path><path d="M171.865 99.247v8.004H161.06a12.053 12.053 0 0 0-6.264-1.833c-2.497-.039-4.813.645-6.712 1.833H69.959a12.067 12.067 0 0 0-6.492-1.836c-2.389.016-4.605.691-6.437 1.836H26.436v-9.049h145.312c.077.339.117.688.117 1.045z" data-color="4" class="icon1"></path><path d="M26.437 107.251h30.592a11.622 11.622 0 0 0-4.881 7.951 1.221 1.221 0 0 1-1.363 1.058l-20.548-2.841c-2.176-.301-3.8-2.18-3.8-4.4v-1.768z" opacity=".4"></path><path d="M52.753 112.584a1.221 1.221 0 0 1-1.363 1.058l-20.548-2.841c-1.892-.261-3.364-1.716-3.718-3.549h-.687v1.768c0 2.22 1.624 4.099 3.8 4.4l20.548 2.841a1.221 1.221 0 0 0 1.363-1.058 11.62 11.62 0 0 1 4.881-7.951h-2.093a11.59 11.59 0 0 0-2.183 5.332z" opacity=".28"></path><path d="M57.029 107.483c-.638.442-1.228.95-1.764 1.51H26.437v-1.51h30.592z" data-color="3" class="icon3"></path><path d="M148.083 107.251a11.618 11.618 0 0 0-4.883 7.999 11.73 11.73 0 0 0-.105 1.579v.947a1.51 1.51 0 0 1-1.501 1.515H76.269a1.224 1.224 0 0 1-1.218-1.23v-1.036c0-.601-.045-1.195-.135-1.776a12.002 12.002 0 0 0-4.958-7.999h78.125z" opacity=".4"></path><path d="M148.083 107.251a11.447 11.447 0 0 0-2.186 1.978H72.139a11.835 11.835 0 0 0-2.181-1.978h78.125z" data-color="3" class="icon3"></path><path d="M171.864 107.251v7.746c0 .083-.003.169-.008.253-.128 2.253-1.979 4.041-4.245 4.041a1.48 1.48 0 0 1-1.061-.445 1.508 1.508 0 0 1-.44-1.071v-.755c0-.601-.045-1.192-.133-1.77a11.891 11.891 0 0 0-4.918-7.999h10.805z" opacity=".4"></path><path d="M134.735 115.25h-12.717c-1.715 0-3.106-1.404-3.106-3.136V80.417c0-1.732 1.391-3.136 3.106-3.136h12.717c1.715 0 3.106 1.404 3.106 3.136v31.697c.001 1.732-1.39 3.136-3.106 3.136z" data-color="2" class="icon2"></path><path d="M134.735 115.373h-12.717c-1.78 0-3.227-1.462-3.227-3.259V80.417c0-1.797 1.448-3.259 3.227-3.259h12.717c1.78 0 3.227 1.462 3.227 3.259v31.697c.001 1.797-1.447 3.259-3.227 3.259zm-12.716-37.969c-1.646 0-2.985 1.352-2.985 3.013v31.697c0 1.662 1.339 3.013 2.985 3.013h12.717c1.646 0 2.985-1.352 2.985-3.013V80.417c0-1.662-1.339-3.013-2.985-3.013h-12.717z"></path><path d="M171.864 107.251v1.705h-8.868a11.58 11.58 0 0 0-1.936-1.705h10.804z" data-color="3" class="icon3"></path><path d="M137.842 80.416v2.904c0-1.73-1.391-3.134-3.107-3.134h-12.716c-1.716 0-3.107 1.404-3.107 3.134v-2.904c0-1.73 1.391-3.134 3.107-3.134h12.716c1.716 0 3.107 1.404 3.107 3.134z" opacity=".28"></path><path d="M141.318 76.679a.751.751 0 0 1-.731-.592 2.083 2.083 0 0 0-2.015-1.626H26.437c-.414 0-.75-.339-.75-.758s.336-.758.75-.758h112.135c1.653 0 3.116 1.181 3.479 2.809a.759.759 0 0 1-.733.925z"></path><path d="M141.319 79.47c-.283-1.56-1.406-2.729-2.747-2.729H26.437v-3.038h112.135c1.341 0 2.464 1.169 2.747 2.729" opacity=".28"></path><path d="M137.842 98.202v9.049h-18.929v-9.049h18.929z" data-color="4" class="icon1"></path><path d="M134.735 116.008h-12.717c-2.127 0-3.856-1.747-3.856-3.894V80.417c0-2.147 1.73-3.894 3.856-3.894h12.717c2.127 0 3.856 1.747 3.856 3.894v31.697c.001 2.147-1.729 3.894-3.856 3.894zm-12.716-37.969c-1.299 0-2.356 1.067-2.356 2.378v31.697c0 1.311 1.057 2.378 2.356 2.378h12.717c1.299 0 2.356-1.067 2.356-2.378V80.417c0-1.311-1.057-2.378-2.356-2.378h-12.717z"></path><path d="M57.029 108.009H26.437c-.414 0-.75-.339-.75-.758s.336-.758.75-.758h30.592c.414 0 .75.339.75.758s-.335.758-.75.758z"></path><path d="M171.864 108.009h-10.805c-.414 0-.75-.339-.75-.758s.336-.758.75-.758h10.805c.414 0 .75.339.75.758s-.336.758-.75.758z"></path><path d="M118.912 108.009H69.958c-.414 0-.75-.339-.75-.758s.336-.758.75-.758h48.954c.414 0 .75.339.75.758s-.336.758-.75.758z"></path><path d="M111.324 91.257v2.19a1.76 1.76 0 0 1-1.751 1.768H99.066a1.76 1.76 0 0 1-1.751-1.768v-2.19c0 .977.783 1.768 1.751 1.768h10.507c.968 0 1.751-.791 1.751-1.768z" data-color="3" class="icon3"></path><path d="M92.062 91.257v2.19a1.76 1.76 0 0 1-1.751 1.768H79.804a1.76 1.76 0 0 1-1.751-1.768v-2.19c0 .977.783 1.768 1.751 1.768h10.507c.968 0 1.751-.791 1.751-1.768z" data-color="3" class="icon3"></path><path d="M72.799 91.257v2.19a1.76 1.76 0 0 1-1.751 1.768H60.541a1.76 1.76 0 0 1-1.751-1.768v-2.19c0 .977.783 1.768 1.751 1.768h10.507c.968 0 1.751-.791 1.751-1.768z" data-color="3" class="icon3"></path><path d="M53.537 91.257v2.19a1.76 1.76 0 0 1-1.751 1.768H41.279a1.76 1.76 0 0 1-1.751-1.768v-2.19c0 .977.783 1.768 1.751 1.768h10.507c.968 0 1.751-.791 1.751-1.768z" data-color="3" class="icon3"></path><path d="M109.573 93.025H99.066a1.76 1.76 0 0 1-1.751-1.768V79.049a1.76 1.76 0 0 1 1.751-1.768h10.507a1.76 1.76 0 0 1 1.751 1.768v12.207a1.76 1.76 0 0 1-1.751 1.769z" data-color="1" class="icon1"></path><path d="M90.311 93.025H79.804a1.76 1.76 0 0 1-1.751-1.768V79.049a1.76 1.76 0 0 1 1.751-1.768h10.507a1.76 1.76 0 0 1 1.751 1.768v12.207a1.76 1.76 0 0 1-1.751 1.769z" data-color="1" class="icon1"></path><path d="M71.048 93.025H60.541a1.76 1.76 0 0 1-1.751-1.768V79.049a1.76 1.76 0 0 1 1.751-1.768h10.507a1.76 1.76 0 0 1 1.751 1.768v12.207a1.76 1.76 0 0 1-1.751 1.769z" data-color="1" class="icon1"></path><path d="M53.537 79.05v12.206c0 .53-.23 1.008-.598 1.328a1.72 1.72 0 0 1-1.153.439H41.279a1.759 1.759 0 0 1-1.751-1.768V79.05c0-.384.12-.74.328-1.028.315-.45.836-.74 1.423-.74h10.507c.968 0 1.751.791 1.751 1.768z" data-color="1" class="icon1"></path><path d="M134.695 82.46v17.207c0 .242-.05.472-.143.679a1.67 1.67 0 0 1-1.526 1.005h-9.299a1.675 1.675 0 0 1-1.666-1.685V82.46c0-.194.033-.381.093-.556a1.667 1.667 0 0 1 1.574-1.129h9.299c.92 0 1.668.753 1.668 1.685z" data-color="1" class="icon1"></path><path d="M109.573 93.025H99.066a1.76 1.76 0 0 1-1.751-1.768V79.049a1.76 1.76 0 0 1 1.751-1.768h10.507a1.76 1.76 0 0 1 1.751 1.768v12.207a1.76 1.76 0 0 1-1.751 1.769z" opacity=".12"></path><path d="M90.311 93.025H79.804a1.76 1.76 0 0 1-1.751-1.768V79.049a1.76 1.76 0 0 1 1.751-1.768h10.507a1.76 1.76 0 0 1 1.751 1.768v12.207a1.76 1.76 0 0 1-1.751 1.769z" opacity=".12"></path><path d="M71.048 93.025H60.541a1.76 1.76 0 0 1-1.751-1.768V79.049a1.76 1.76 0 0 1 1.751-1.768h10.507a1.76 1.76 0 0 1 1.751 1.768v12.207a1.76 1.76 0 0 1-1.751 1.769z" opacity=".12"></path><path d="M53.537 79.05v12.206c0 .53-.23 1.008-.598 1.328a1.72 1.72 0 0 1-1.153.439H41.279a1.759 1.759 0 0 1-1.751-1.768V79.05c0-.384.12-.74.328-1.028.315-.45.836-.74 1.423-.74h10.507c.968 0 1.751.791 1.751 1.768z" opacity=".12"></path><path d="M134.695 82.46v17.207c0 .242-.05.472-.143.679a1.67 1.67 0 0 1-1.526 1.005h-9.299a1.675 1.675 0 0 1-1.666-1.685V82.46c0-.194.033-.381.093-.556a1.667 1.667 0 0 1 1.574-1.129h9.299c.92 0 1.668.753 1.668 1.685z" opacity=".12"></path><path d="M134.695 99.422v1.962c0 .929-.748 1.682-1.669 1.682h-9.299a1.673 1.673 0 0 1-1.666-1.682v-1.962c0 .929.745 1.685 1.666 1.685h9.299a1.68 1.68 0 0 0 1.669-1.685z" data-color="3" class="icon3"></path><path d="M148.083 108.009h-10.242c-.414 0-.75-.339-.75-.758s.336-.758.75-.758h10.242c.414 0 .75.339.75.758s-.335.758-.75.758z"></path><path d="M44.573 85.953a1.97 1.97 0 0 0-1.96 1.978v5.093h3.919v-5.093a1.968 1.968 0 0 0-1.959-1.978z"></path><path d="M63.835 85.953a1.97 1.97 0 0 0-1.96 1.978v5.093h3.919v-5.093a1.967 1.967 0 0 0-1.959-1.978z"></path><path d="M82.723 85.953a1.97 1.97 0 0 0-1.96 1.978v5.093h3.919v-5.093a1.968 1.968 0 0 0-1.959-1.978z"></path><path d="M102.36 85.953a1.97 1.97 0 0 0-1.96 1.978v5.093h3.919v-5.093a1.968 1.968 0 0 0-1.959-1.978z"></path><path d="M49.387 93.025h-4.06l-5.799-9.128V79.05c0-.384.12-.74.328-1.028l9.531 15.003z" data-color="1" class="icon1"></path><path d="M53.537 84.427v6.829c0 .53-.23 1.008-.598 1.328l-9.721-15.303h5.779l4.54 7.146z" data-color="1" class="icon1"></path><path d="M68.649 93.025h-4.06l-5.799-9.128V79.05c0-.384.12-.74.328-1.028l9.531 15.003z" data-color="1" class="icon1"></path><path d="M72.799 84.427v6.829c0 .53-.23 1.008-.598 1.328L62.48 77.282h5.779l4.54 7.145z" data-color="1" class="icon1"></path><path d="M87.912 93.025h-4.06l-5.799-9.128V79.05c0-.384.12-.74.328-1.028l9.531 15.003z" data-color="1" class="icon1"></path><path d="M92.062 84.427v6.829c0 .53-.23 1.008-.598 1.328l-9.721-15.303h5.779l4.54 7.146z" data-color="1" class="icon1"></path><path d="M107.174 93.025h-4.06l-5.799-9.128V79.05c0-.384.12-.74.328-1.028l9.531 15.003z" data-color="1" class="icon1"></path><path d="M111.324 84.427v6.829c0 .53-.23 1.008-.598 1.328l-9.721-15.303h5.779l4.54 7.146z" data-color="1" class="icon1"></path><path d="M51.786 93.782H41.279c-1.379 0-2.502-1.133-2.502-2.526V79.049c0-1.393 1.122-2.526 2.502-2.526h10.507c1.379 0 2.502 1.133 2.502 2.526v12.207c-.001 1.393-1.123 2.526-2.502 2.526zM41.279 78.039c-.552 0-1.001.453-1.001 1.01v12.207c0 .557.449 1.01 1.001 1.01h10.507c.552 0 1.001-.453 1.001-1.01V79.049c0-.557-.449-1.01-1.001-1.01H41.279z"></path><path d="M169.57 104.642h2.285v-6.584h-2.285c-.76 0-1.376.622-1.376 1.389v3.805c.001.769.617 1.39 1.376 1.39z" data-color="1" class="icon1"></path><path d="M169.57 104.642h2.285v-6.584h-2.285c-.76 0-1.376.622-1.376 1.389v3.805c.001.769.617 1.39 1.376 1.39z" opacity=".12"></path><path d="M171.856 102.819v1.824h-2.286a1.383 1.383 0 0 1-1.376-1.389v-1.824c0 .768.618 1.389 1.376 1.389h2.286z" opacity=".28"></path><path d="M171.856 98.058v1.548h-2.286c-.758 0-1.376.621-1.376 1.389v-1.548c0-.765.618-1.389 1.376-1.389h2.286z" data-color="1" class="icon1"></path><path d="M171.856 105.4h-2.285a2.14 2.14 0 0 1-2.126-2.147v-3.805a2.14 2.14 0 0 1 2.126-2.147h2.285c.414 0 .75.339.75.758v6.584a.754.754 0 0 1-.75.757zm-2.286-6.583a.628.628 0 0 0-.625.631v3.805a.63.63 0 0 0 .625.631h1.535v-5.068h-1.535z"></path><path d="M171.856 105.4h-2.285a2.14 2.14 0 0 1-2.126-2.147v-3.805a2.14 2.14 0 0 1 2.126-2.147h2.285c.414 0 .75.339.75.758v6.584a.754.754 0 0 1-.75.757zm-2.286-6.583a.628.628 0 0 0-.625.631v3.805a.63.63 0 0 0 .625.631h1.535v-5.068h-1.535z"></path><path d="M74.916 115.25H143.2a11.73 11.73 0 0 0-.105 1.579v.947a1.51 1.51 0 0 1-1.501 1.515H76.269a1.224 1.224 0 0 1-1.218-1.23v-1.036c0-.6-.045-1.194-.135-1.775z" opacity=".28"></path><path d="M171.856 115.25c-.128 2.253-1.979 4.041-4.245 4.041a1.48 1.48 0 0 1-1.061-.445 1.508 1.508 0 0 1-.44-1.071v-.755c0-.601-.045-1.192-.133-1.77h5.879z" opacity=".28"></path><path d="M109.573 93.782H99.066c-1.379 0-2.501-1.133-2.501-2.526V79.049c0-1.393 1.122-2.526 2.501-2.526h10.507c1.379 0 2.501 1.133 2.501 2.526v12.207c.001 1.393-1.121 2.526-2.501 2.526zM99.066 78.039c-.552 0-1.001.453-1.001 1.01v12.207c0 .557.449 1.01 1.001 1.01h10.507c.552 0 1.001-.453 1.001-1.01V79.049c0-.557-.449-1.01-1.001-1.01H99.066z"></path><path d="M90.311 93.782H79.804c-1.379 0-2.502-1.133-2.502-2.526V79.049c0-1.393 1.122-2.526 2.502-2.526h10.507c1.379 0 2.502 1.133 2.502 2.526v12.207c-.001 1.393-1.123 2.526-2.502 2.526zM79.804 78.039c-.552 0-1.001.453-1.001 1.01v12.207c0 .557.449 1.01 1.001 1.01h10.507c.552 0 1.001-.453 1.001-1.01V79.049c0-.557-.449-1.01-1.001-1.01H79.804z"></path><path d="M71.048 93.782H60.541c-1.379 0-2.501-1.133-2.501-2.526V79.049c0-1.393 1.122-2.526 2.501-2.526h10.507c1.379 0 2.501 1.133 2.501 2.526v12.207c.001 1.393-1.121 2.526-2.501 2.526zM60.541 78.039c-.552 0-1.001.453-1.001 1.01v12.207c0 .557.449 1.01 1.001 1.01h10.507c.552 0 1.001-.453 1.001-1.01V79.049c0-.557-.449-1.01-1.001-1.01H60.541z"></path><path d="M134.695 92.05v7.617c0 .242-.05.472-.143.679l-12.398-18.442a1.667 1.667 0 0 1 1.574-1.129h3.39l7.577 11.275z" data-color="1" class="icon1"></path><path d="M132.135 101.352h-4.312l-5.762-8.572v-6.416l10.074 14.988z" data-color="1" class="icon1"></path><path d="M133.026 102.108h-9.298c-1.333 0-2.418-1.095-2.418-2.442V82.459c0-1.346 1.085-2.442 2.418-2.442h9.298c1.333 0 2.418 1.095 2.418 2.442v17.208c0 1.346-1.085 2.441-2.418 2.441zm-9.298-20.575a.922.922 0 0 0-.917.926v17.208c0 .511.412.926.917.926h9.298a.922.922 0 0 0 .917-.926V82.459a.923.923 0 0 0-.917-.926h-9.298z"></path><path d="M128.377 101.963a.61.61 0 0 1-.607-.613V80.775a.61.61 0 0 1 .607-.613.61.61 0 0 1 .607.613v20.576a.61.61 0 0 1-.607.612z"></path><path d="M164.911 104.264h-1.209a.8.8 0 0 1-.797-.805v-4.241a.8.8 0 0 1 .797-.805h1.209a.8.8 0 0 1 .797.805v4.241a.8.8 0 0 1-.797.805z" data-color="4" class="icon1"></path><path d="M164.911 104.386h-1.209a.924.924 0 0 1-.919-.928v-4.241c0-.511.412-.928.919-.928h1.209c.507 0 .919.416.919.928v4.241a.924.924 0 0 1-.919.928zm-1.209-5.851a.68.68 0 0 0-.676.682v4.241a.68.68 0 0 0 .676.682h1.209a.68.68 0 0 0 .676-.682v-4.241a.68.68 0 0 0-.676-.682h-1.209z"></path><path d="M165.71 101.693v1.765a.803.803 0 0 1-.798.806h-1.208a.8.8 0 0 1-.798-.806v-1.765a.8.8 0 0 0 .798.806h1.208a.804.804 0 0 0 .798-.806z" opacity=".28"></path><path d="M165.71 99.217v1.515a.803.803 0 0 0-.798-.806h-1.208a.8.8 0 0 0-.798.806v-1.515a.8.8 0 0 1 .798-.806h1.208c.44.001.798.362.798.806z" data-color="3" class="icon3"></path><path d="M28.948 102.706h-2.511v-5.051h2.511a1.33 1.33 0 0 1 1.324 1.336v2.378a1.33 1.33 0 0 1-1.324 1.337z" data-color="5" class="icon2"></path><path d="M30.272 99.776v1.594a1.33 1.33 0 0 1-1.323 1.336h-2.512v-1.594h2.512a1.33 1.33 0 0 0 1.323-1.336z" opacity=".28"></path><path d="M30.272 98.803v1.515c0-.74-.593-1.339-1.323-1.339h-2.512v-1.515h2.512c.73.001 1.323.599 1.323 1.339z" data-color="3" class="icon3"></path><path d="M164.911 105.021h-1.209a1.557 1.557 0 0 1-1.548-1.563v-4.241c0-.862.694-1.563 1.548-1.563h1.209c.854 0 1.548.701 1.548 1.563v4.241c0 .862-.694 1.563-1.548 1.563zm-1.209-5.851a.047.047 0 0 0-.047.047v4.241c0 .026.021.047.047.047h1.209a.047.047 0 0 0 .047-.047v-4.241a.047.047 0 0 0-.047-.047h-1.209z"></path><path d="M28.948 103.464h-2.511a.754.754 0 0 1-.75-.758v-5.051c0-.418.336-.758.75-.758h2.511c1.144 0 2.074.939 2.074 2.094v2.378c0 1.155-.93 2.095-2.074 2.095zm-1.761-1.515h1.761c.316 0 .573-.26.573-.579v-2.378a.577.577 0 0 0-.573-.579h-1.761v3.536z"></path><path d="m74.313 103.16.461-.084a.362.362 0 0 1 .372.145c.129.201.35.301.665.301.315 0 .472-.085.472-.253a.233.233 0 0 0-.109-.206c-.073-.049-.203-.093-.39-.131-.715-.138-1.174-.319-1.377-.542a1.133 1.133 0 0 1-.305-.787c0-.388.146-.711.438-.968.292-.257.711-.386 1.259-.386.639 0 1.111.199 1.416.598a.347.347 0 0 1-.179.537l-.361.11c-.131.04-.283.009-.368-.099-.122-.155-.306-.232-.553-.232-.273 0-.409.086-.409.256 0 .076.031.136.093.178.062.042.181.082.358.121.488.104.834.196 1.039.276a1.16 1.16 0 0 1 .72 1.097c0 .416-.167.754-.502 1.012-.334.258-.773.388-1.317.388-.804 0-1.359-.274-1.665-.822a.348.348 0 0 1 .242-.509z"></path><path d="m80.562 102.873.463.028a.349.349 0 0 1 .308.452 1.54 1.54 0 0 1-.468.733c-.316.269-.703.404-1.163.404-.553 0-1-.185-1.341-.555-.34-.37-.511-.88-.511-1.531 0-.645.161-1.166.484-1.562.322-.396.772-.594 1.35-.594.54 0 .954.151 1.244.452.209.217.352.486.43.805a.342.342 0 0 1-.318.415l-.46.025a.344.344 0 0 1-.354-.277.644.644 0 0 0-.132-.302.47.47 0 0 0-.369-.184c-.394 0-.591.4-.591 1.2 0 .448.051.753.154.914a.483.483 0 0 0 .432.241c.257 0 .426-.137.507-.412.045-.153.177-.261.335-.252z"></path><path d="M85.334 100.658v3.422a.346.346 0 0 1-.343.347h-.565a.344.344 0 0 1-.343-.347v-.908a.346.346 0 0 0-.343-.347h-.27a.344.344 0 0 0-.343.347v.908a.346.346 0 0 1-.343.347h-.565a.344.344 0 0 1-.343-.347v-3.422c0-.191.154-.347.343-.347h.565c.19 0 .343.155.343.347v.82c0 .191.154.347.343.347h.269c.19 0 .343-.155.343-.347v-.82c0-.191.154-.347.343-.347h.565c.19 0 .344.155.344.347z"></path><path d="M87.803 104.49c-.573 0-1.041-.192-1.402-.576-.361-.384-.542-.898-.542-1.541 0-.615.173-1.123.518-1.524.345-.401.825-.602 1.438-.602.567 0 1.03.189 1.387.567.357.378.536.882.536 1.514 0 .653-.18 1.177-.541 1.571-.359.394-.824.591-1.394.591zm-.006-.935a.471.471 0 0 0 .455-.279c.093-.186.139-.526.139-1.02 0-.716-.19-1.073-.57-1.073-.41 0-.615.408-.615 1.224 0 .766.197 1.148.591 1.148z"></path><path d="M92.029 104.49c-.573 0-1.041-.192-1.402-.576-.361-.384-.542-.898-.542-1.541 0-.615.173-1.123.518-1.524.345-.401.825-.602 1.438-.602.567 0 1.03.189 1.387.567.357.378.536.882.536 1.514 0 .653-.18 1.177-.541 1.571-.36.394-.825.591-1.394.591zm-.006-.935a.471.471 0 0 0 .455-.279c.093-.186.139-.526.139-1.02 0-.716-.19-1.073-.57-1.073-.41 0-.615.408-.615 1.224 0 .766.197 1.148.591 1.148z"></path><path d="M97.351 103.763v.317a.346.346 0 0 1-.343.347h-2.171a.344.344 0 0 1-.343-.347v-3.422c0-.191.154-.347.343-.347h.565c.19 0 .343.155.343.347v2.412c0 .191.154.347.343.347h.92c.189 0 .343.155.343.346z"></path><path d="M99.316 104.08v-3.422c0-.191.154-.347.343-.347h1.726c.43 0 .744.11.941.329.197.219.296.469.296.751a.953.953 0 0 1-.242.644c-.133.143-.089.367.059.495.194.169.291.408.291.718 0 .306-.093.578-.279.819-.186.24-.584.36-1.193.36H99.66a.345.345 0 0 1-.344-.347zm1.153-2.539c0 .191.154.347.343.347h.236c.145 0 .248-.037.308-.111a.373.373 0 0 0 .09-.238c0-.229-.139-.344-.418-.344h-.215a.344.344 0 0 0-.344.346zm0 1.623c0 .191.154.347.343.347h.266c.151 0 .262-.038.333-.113a.36.36 0 0 0 .106-.255c0-.094-.034-.181-.103-.261s-.195-.119-.378-.119h-.224a.344.344 0 0 0-.343.347v.054z"></path><path d="M106.209 100.311c.19 0 .343.155.343.347v2.379c0 .516-.152.888-.456 1.114-.304.226-.699.339-1.187.339-.514 0-.926-.109-1.238-.326-.311-.217-.467-.571-.467-1.061v-2.445c0-.191.154-.347.343-.347h.586c.19 0 .343.155.343.347v2.298c0 .197.041.341.124.431.082.09.214.136.395.136a.652.652 0 0 0 .371-.098c.096-.065.154-.139.173-.221.019-.082.028-.243.028-.482v-2.062c0-.191.154-.347.343-.347h.299z"></path><path d="m107.217 103.16.461-.084a.362.362 0 0 1 .372.145c.129.201.351.301.665.301.315 0 .472-.085.472-.253a.233.233 0 0 0-.109-.206c-.073-.049-.203-.093-.39-.131-.715-.138-1.174-.319-1.377-.542a1.132 1.132 0 0 1-.304-.787c0-.388.146-.711.437-.968.292-.257.711-.386 1.259-.386.639 0 1.111.199 1.416.598a.348.348 0 0 1-.179.537l-.361.11c-.131.04-.283.009-.368-.099-.122-.155-.306-.232-.552-.232-.273 0-.409.086-.409.256 0 .076.031.136.093.178.062.042.181.082.358.121.488.104.834.196 1.039.276a1.16 1.16 0 0 1 .72 1.097c0 .416-.167.754-.502 1.012-.334.258-.773.388-1.317.388-.804 0-1.359-.274-1.665-.822a.347.347 0 0 1 .241-.509z"></path><path d="M70.922 103.121c0 2.25-1.181-.852-7.203-.864-5.231-.011-7.203 3.114-7.203.864 0-1.793 3.225-4.074 7.203-4.074 3.979 0 7.203 2.281 7.203 4.074z" data-color="2" class="icon2"></path><path d="M161.628 103.121c0 2.25-1.181-.852-7.203-.864-5.231-.011-7.203 3.114-7.203.864 0-1.793 3.225-4.074 7.203-4.074s7.203 2.281 7.203 4.074z" data-color="2" class="icon2"></path><path d="M164.602 115.839c.707 5.673-3.276 10.853-8.896 11.567-5.622.714-10.75-3.308-11.457-8.981a10.4 10.4 0 0 1 .255-3.925v-.003c1.033-3.967 4.362-7.096 8.641-7.64 4.937-.627 9.497 2.398 11.01 6.991.211.636.362 1.302.447 1.991z" data-color="6" class="icon3"></path><path d="M154.418 127.61c-5.15 0-9.63-3.88-10.289-9.17a10.523 10.523 0 0 1 .252-3.95l.005-.024c1.083-4.159 4.515-7.193 8.744-7.731 4.9-.623 9.585 2.353 11.14 7.074.214.648.367 1.325.452 2.013.714 5.732-3.323 10.983-9.001 11.704a10.07 10.07 0 0 1-1.303.084zm-9.791-13.102-.005.023a10.268 10.268 0 0 0-.252 3.878c.698 5.598 5.777 9.579 11.321 8.875 5.545-.704 9.488-5.832 8.791-11.43a10.301 10.301 0 0 0-.442-1.966c-1.519-4.611-6.095-7.518-10.879-6.909-4.123.524-7.47 3.478-8.534 7.529z"></path><path d="M154.403 128.372c-2.458 0-4.832-.817-6.805-2.364a11.197 11.197 0 0 1-4.218-7.474 11.246 11.246 0 0 1 2.252-8.296 11.035 11.035 0 0 1 7.403-4.258c6.09-.773 11.669 3.599 12.435 9.748a11.246 11.246 0 0 1-2.252 8.296 11.035 11.035 0 0 1-7.403 4.258c-.472.06-.944.09-1.412.09zm.029-20.713a9.4 9.4 0 0 0-1.178.075c-5.132.652-8.782 5.398-8.136 10.58.646 5.182 5.351 8.867 10.479 8.215 5.132-.652 8.782-5.398 8.136-10.58-.596-4.782-4.646-8.29-9.301-8.29z"></path><path d="M159.773 117.131c0 2.982-2.394 5.399-5.348 5.399-2.954 0-5.348-2.417-5.348-5.399s2.394-5.399 5.348-5.399c2.954 0 5.348 2.417 5.348 5.399z" data-color="2" class="icon2"></path><path d="M154.414 122.654a5.391 5.391 0 0 1-3.343-1.161 5.495 5.495 0 0 1-2.072-3.672 5.521 5.521 0 0 1 1.106-4.076 5.422 5.422 0 0 1 3.637-2.092 5.394 5.394 0 0 1 4.037 1.117 5.495 5.495 0 0 1 2.072 3.672c.377 3.021-1.751 5.788-4.743 6.168a5.6 5.6 0 0 1-.694.044zm.022-10.8a5.18 5.18 0 0 0-4.138 2.041 5.275 5.275 0 0 0-1.057 3.895c.36 2.887 2.977 4.94 5.838 4.576 2.859-.363 4.893-3.007 4.533-5.894a5.257 5.257 0 0 0-1.98-3.509 5.168 5.168 0 0 0-3.196-1.109z"></path><path d="M155.094 122.489c-2.932.371-5.606-1.725-5.974-4.683a5.368 5.368 0 0 1 .075-1.798c.56 2.728 3.112 4.604 5.899 4.248 2.322-.296 4.105-2.051 4.563-4.236.033.144.058.288.075.437.368 2.958-1.709 5.658-4.638 6.032z" opacity=".28"></path><path d="M159.692 118.069c-.49-2.819-3.092-4.784-5.934-4.422-2.384.306-4.203 2.149-4.6 4.417a4.212 4.212 0 0 1-.038-.258c-.37-2.96 1.706-5.66 4.638-6.031 2.929-.374 5.604 1.725 5.974 4.683.068.55.053 1.093-.04 1.611z" data-color="3" class="icon3"></path><path d="M155.913 117.131c0 .83-.666 1.502-1.488 1.502a1.495 1.495 0 0 1-1.488-1.502c0-.83.666-1.502 1.488-1.502s1.488.672 1.488 1.502z"></path><path d="M155.063 114.127a.641.641 0 0 1-.638.644.641.641 0 0 1-.638-.644c0-.356.286-.644.638-.644.352 0 .638.288.638.644z"></path><path d="M155.063 120.136a.641.641 0 0 1-.638.644.641.641 0 0 1-.638-.644c0-.356.286-.644.638-.644.352 0 .638.288.638.644z"></path><path d="M152.486 115.629a.641.641 0 0 1-.638.644.641.641 0 0 1-.638-.644c0-.356.286-.644.638-.644.352 0 .638.288.638.644z"></path><path d="M157.25 118.04a.647.647 0 0 1 .341.844.636.636 0 0 1-.836.344.647.647 0 0 1-.341-.844.636.636 0 0 1 .836-.344z"></path><path d="M152.486 118.634a.641.641 0 0 1-.638.644.641.641 0 0 1-.638-.644c0-.356.286-.644.638-.644.352 0 .638.288.638.644z"></path><path d="M156.617 115.116a.634.634 0 0 1 .894.124c.213.284.158.688-.123.903s-.681.159-.894-.124a.649.649 0 0 1 .123-.903z"></path><path d="M155.094 124.214c-2.932.371-5.606-1.725-5.974-4.683a5.371 5.371 0 0 1 .028-1.543c.45 2.862 3.074 4.864 5.946 4.501 2.409-.308 4.243-2.187 4.61-4.491.01.061.02.124.028.184.368 2.961-1.709 5.66-4.638 6.032z" data-color="3" class="icon3"></path><path d="M154.413 123.267a5.995 5.995 0 0 1-3.714-1.29 6.11 6.11 0 0 1-2.302-4.079 6.136 6.136 0 0 1 1.229-4.528 6.02 6.02 0 0 1 4.041-2.324 5.993 5.993 0 0 1 4.485 1.241 6.11 6.11 0 0 1 2.302 4.079c.418 3.356-1.946 6.43-5.27 6.852a6.07 6.07 0 0 1-.771.049zm.022-10.8a4.578 4.578 0 0 0-3.658 1.804 4.66 4.66 0 0 0-.934 3.443 4.644 4.644 0 0 0 1.75 3.101 4.56 4.56 0 0 0 3.41.944c2.527-.321 4.324-2.658 4.006-5.209a4.644 4.644 0 0 0-1.75-3.101 4.554 4.554 0 0 0-2.824-.982z"></path><path d="M164.155 113.849c-1.808-1.535-3.739-.887-4.911.774-.58-4.653-10.605-3.38-10.025 1.274-.975-1.699-2.854-2.282-4.715-1.397v-.003c1.033-3.967 4.362-7.096 8.641-7.64 4.937-.627 9.497 2.399 11.01 6.992z" opacity=".28"></path><path d="M73.634 115.839c.707 5.673-3.276 10.853-8.896 11.567-5.622.714-10.75-3.308-11.457-8.981a10.4 10.4 0 0 1 .255-3.925v-.003c1.033-3.967 4.362-7.096 8.641-7.64 4.937-.627 9.497 2.398 11.01 6.991.21.636.361 1.302.447 1.991z" data-color="6" class="icon3"></path><path d="M63.436 127.611c-2.292 0-4.505-.762-6.344-2.204a10.432 10.432 0 0 1-3.931-6.967 10.49 10.49 0 0 1 .251-3.944l.007-.029c1.083-4.159 4.516-7.193 8.744-7.731 4.898-.622 9.585 2.353 11.14 7.074.214.647.367 1.325.453 2.013.714 5.732-3.323 10.983-9.001 11.704-.442.056-.882.084-1.319.084zm-9.776-13.108-.006.029a10.266 10.266 0 0 0-.252 3.878 10.185 10.185 0 0 0 3.839 6.804 10.003 10.003 0 0 0 7.482 2.071c5.545-.704 9.488-5.832 8.791-11.43a10.378 10.378 0 0 0-.442-1.966c-1.519-4.611-6.095-7.518-10.879-6.909-4.121.523-7.468 3.474-8.533 7.523z"></path><path d="M63.434 128.372c-2.458 0-4.832-.817-6.805-2.364a11.193 11.193 0 0 1-4.218-7.474 11.246 11.246 0 0 1 2.252-8.296 11.035 11.035 0 0 1 7.403-4.258c6.089-.773 11.669 3.599 12.435 9.748a11.246 11.246 0 0 1-2.252 8.296 11.035 11.035 0 0 1-7.403 4.258c-.472.06-.943.09-1.412.09zm.029-20.713a9.4 9.4 0 0 0-1.178.075c-5.132.652-8.782 5.398-8.136 10.58.646 5.182 5.35 8.867 10.479 8.215 5.132-.652 8.782-5.398 8.136-10.58-.596-4.782-4.646-8.29-9.301-8.29z"></path><path d="M68.805 117.131c0 2.982-2.394 5.399-5.348 5.399-2.954 0-5.348-2.417-5.348-5.399s2.394-5.399 5.348-5.399c2.954 0 5.348 2.417 5.348 5.399z" data-color="2" class="icon2"></path><path d="M63.446 122.654a5.393 5.393 0 0 1-3.343-1.161 5.495 5.495 0 0 1-2.072-3.672 5.526 5.526 0 0 1 1.107-4.076 5.422 5.422 0 0 1 3.637-2.092 5.395 5.395 0 0 1 4.037 1.117 5.495 5.495 0 0 1 2.072 3.672 5.521 5.521 0 0 1-1.106 4.076 5.422 5.422 0 0 1-4.332 2.136zm.021-10.8c-.22 0-.441.014-.663.042-2.859.363-4.893 3.007-4.533 5.894.36 2.887 2.984 4.94 5.838 4.576a5.18 5.18 0 0 0 3.475-1.999 5.275 5.275 0 0 0 1.057-3.895 5.255 5.255 0 0 0-1.98-3.509 5.156 5.156 0 0 0-3.194-1.109z"></path><path d="M64.126 122.489c-2.932.371-5.606-1.725-5.974-4.683a5.368 5.368 0 0 1 .075-1.798c.56 2.728 3.112 4.604 5.899 4.248 2.321-.296 4.105-2.051 4.563-4.236.033.144.058.288.075.437.367 2.958-1.709 5.658-4.638 6.032z" opacity=".28"></path><path d="M68.724 118.069c-.49-2.819-3.092-4.784-5.934-4.422-2.384.306-4.203 2.149-4.6 4.417a4.212 4.212 0 0 1-.038-.258c-.37-2.96 1.706-5.66 4.638-6.031 2.929-.374 5.604 1.725 5.974 4.683.067.55.052 1.093-.04 1.611z" data-color="3" class="icon3"></path><path d="M64.945 117.131c0 .83-.666 1.502-1.488 1.502a1.495 1.495 0 0 1-1.488-1.502c0-.83.666-1.502 1.488-1.502s1.488.672 1.488 1.502z"></path><path d="M64.095 114.127a.641.641 0 0 1-.638.644.641.641 0 0 1-.638-.644c0-.356.286-.644.638-.644.352 0 .638.288.638.644z"></path><path d="M64.09 120.056a.644.644 0 0 1-.553.72.64.64 0 0 1-.713-.559.644.644 0 0 1 .553-.72.64.64 0 0 1 .713.559z"></path><path d="M61.517 115.629a.641.641 0 0 1-.638.644.641.641 0 0 1-.638-.644c0-.356.286-.644.638-.644.352 0 .638.288.638.644z"></path><path d="M66.672 118.634a.641.641 0 0 1-.638.644.641.641 0 0 1-.638-.644c0-.356.286-.644.638-.644.352 0 .638.288.638.644z"></path><path d="M61.517 118.634a.641.641 0 0 1-.638.644.641.641 0 0 1-.638-.644c0-.356.286-.644.638-.644.352 0 .638.288.638.644z"></path><path d="M66.672 115.629a.641.641 0 0 1-.638.644.641.641 0 0 1-.638-.644c0-.356.286-.644.638-.644.352 0 .638.288.638.644z"></path><path d="M64.126 124.214c-2.932.371-5.606-1.725-5.974-4.683a5.371 5.371 0 0 1 .028-1.543c.45 2.862 3.074 4.864 5.946 4.501 2.409-.308 4.243-2.187 4.61-4.491.01.061.02.124.028.184.367 2.961-1.709 5.66-4.638 6.032z" data-color="3" class="icon3"></path><path d="M63.444 123.267a5.993 5.993 0 0 1-3.714-1.29 6.11 6.11 0 0 1-2.302-4.079 6.14 6.14 0 0 1 1.229-4.528 6.02 6.02 0 0 1 4.041-2.324 5.993 5.993 0 0 1 4.485 1.241 6.11 6.11 0 0 1 2.302 4.079 6.136 6.136 0 0 1-1.229 4.528 6.02 6.02 0 0 1-4.812 2.373zm.022-10.8a4.578 4.578 0 0 0-3.658 1.804 4.664 4.664 0 0 0-.935 3.442 4.644 4.644 0 0 0 1.75 3.101 4.56 4.56 0 0 0 3.41.944 4.582 4.582 0 0 0 3.072-1.767 4.66 4.66 0 0 0 .934-3.443 4.644 4.644 0 0 0-1.75-3.101 4.557 4.557 0 0 0-2.823-.98z"></path><path d="M73.187 113.849c-1.808-1.535-3.739-.887-4.911.774-.58-4.653-10.605-3.38-10.025 1.274-.975-1.699-2.854-2.282-4.715-1.397v-.003c1.033-3.967 4.362-7.096 8.641-7.64 4.937-.627 9.497 2.399 11.01 6.992z" opacity=".28"></path><path d="M147.973 89.994h-2.001l-1.001-16.291h2.001l1.001 16.291z" data-color="1" class="icon1"></path><path d="M111.324 79.05v12.206c0 .977-.783 1.768-1.751 1.768h-.418V81.237a1.76 1.76 0 0 0-1.751-1.768H97.315v-.419c0-.977.783-1.768 1.751-1.768h10.507c.968 0 1.751.791 1.751 1.768z" opacity=".27"></path><path d="M92.062 79.05v12.206c0 .977-.783 1.768-1.751 1.768h-.418V81.237a1.76 1.76 0 0 0-1.751-1.768H78.053v-.419c0-.977.783-1.768 1.751-1.768h10.507c.968 0 1.751.791 1.751 1.768z" opacity=".27"></path><path d="M72.799 79.05v12.206c0 .977-.783 1.768-1.751 1.768h-.418V81.237a1.76 1.76 0 0 0-1.751-1.768H58.79v-.419c0-.977.783-1.768 1.751-1.768h10.507c.968 0 1.751.791 1.751 1.768z" opacity=".27"></path><path d="M53.537 79.05v12.206c0 .977-.783 1.768-1.751 1.768h-.418V81.237a1.76 1.76 0 0 0-1.751-1.768H39.528v-.419c0-.977.783-1.768 1.751-1.768h10.507c.968 0 1.751.791 1.751 1.768z" opacity=".27"></path><path d="M134.695 82.46v17.207c0 .929-.748 1.685-1.669 1.685h-.083V84.268c0-.929-.748-1.682-1.669-1.682h-9.213v-.126c0-.932.745-1.685 1.666-1.685h9.299c.921 0 1.669.753 1.669 1.685z" opacity=".28"></path><path d="M170.703 128.244c-2.905.412-5.811.511-8.716.562-1.453.028-2.905.033-4.358.026-1.453.002-2.906-.017-4.358-.03-2.905-.024-5.811-.03-8.716-.027H48.673l-4.358.002-2.179.019-2.179.033a71.183 71.183 0 0 1-4.358-.079c-1.453-.08-2.906-.206-4.358-.505a.27.27 0 0 1 0-.531c1.453-.3 2.905-.425 4.358-.505a71.183 71.183 0 0 1 4.358-.079l2.179.033 2.179.019 4.358.001h95.881c2.906.004 5.811-.002 8.716-.027 1.453-.014 2.905-.032 4.358-.03 1.453-.007 2.905-.002 4.358.026 2.905.051 5.811.149 8.716.562a.268.268 0 0 1 .001.53z"></path><path d="M44.573 85.953a1.97 1.97 0 0 0-1.96 1.978v5.093h3.919v-5.093a1.968 1.968 0 0 0-1.959-1.978z" opacity=".28"></path><path d="M63.835 85.953a1.97 1.97 0 0 0-1.96 1.978v5.093h3.919v-5.093a1.967 1.967 0 0 0-1.959-1.978z" opacity=".28"></path><path d="M82.723 85.953a1.97 1.97 0 0 0-1.96 1.978v5.093h3.919v-5.093a1.968 1.968 0 0 0-1.959-1.978z" opacity=".28"></path><path d="M102.36 85.953a1.97 1.97 0 0 0-1.96 1.978v5.093h3.919v-5.093a1.968 1.968 0 0 0-1.959-1.978z" opacity=".28"></path><path d="M167.611 120.175a2.34 2.34 0 0 1-1.683-.707 2.38 2.38 0 0 1-.694-1.693v-.755c0-5.929-4.689-10.829-10.454-10.923a10.488 10.488 0 0 0-7.633 3.077 10.707 10.707 0 0 0-3.177 7.655v.947c0 1.323-1.066 2.399-2.377 2.399H76.269a2.107 2.107 0 0 1-2.094-2.114v-1.036c0-2.896-1.181-5.741-3.241-7.807-2.01-2.016-4.634-3.124-7.393-3.124h-.069c-5.237.037-9.733 4.005-10.456 9.23-.158 1.149-1.21 1.964-2.344 1.812l-20.553-2.842c-2.598-.359-4.557-2.627-4.557-5.275V73.135c0-3.934 3.17-7.135 7.067-7.135H141.72c3.38 0 6.129 2.776 6.129 6.188v1.515a.88.88 0 0 1-.876.884h-2.794a2.097 2.097 0 0 0-2.084 2.104v10.883a1.53 1.53 0 0 0 1.521 1.535h4.358c.04 0 .079.003.118.008l18.907 2.599c3.273.449 5.741 3.302 5.741 6.637v16.644c-.001 2.856-2.301 5.178-5.129 5.178zm-13.015-15.847.214.002c6.714.11 12.176 5.803 12.176 12.691v.755a.62.62 0 0 0 .181.443.614.614 0 0 0 .445.189c1.862 0 3.377-1.53 3.377-3.41V98.354c0-2.455-1.817-4.555-4.226-4.885l-18.849-2.591h-4.298c-1.804 0-3.272-1.482-3.272-3.304V76.691c0-2.135 1.72-3.872 3.835-3.872h1.919v-.631c0-2.437-1.964-4.42-4.378-4.42H32.628c-2.931 0-5.316 2.408-5.316 5.367v35.884c0 1.769 1.308 3.284 3.043 3.524l20.548 2.841a.342.342 0 0 0 .377-.304c.843-6.088 6.079-10.711 12.178-10.754 3.259-.032 6.347 1.27 8.708 3.638 2.389 2.395 3.759 5.698 3.759 9.061v1.036c0 .191.154.346.343.346h65.325a.628.628 0 0 0 .625-.631v-.947a12.47 12.47 0 0 1 3.7-8.915 12.232 12.232 0 0 1 8.678-3.586z"></path><path d="M147.973 90.878h-4.358c-1.804 0-3.272-1.482-3.272-3.304V76.691c0-2.135 1.72-3.872 3.835-3.872h2.794c.463 0 .845.363.874.829l1.001 16.29a.888.888 0 0 1-.236.66.867.867 0 0 1-.638.28zm-3.795-16.291a2.097 2.097 0 0 0-2.084 2.104v10.883a1.53 1.53 0 0 0 1.521 1.535h3.426l-.892-14.522h-1.971z"></path></g></g>
</svg>
</g></svg></svg>