<svg version="1.1" preserveAspectRatio="none" xmlns="http://www.w3.org/2000/svg" width="500" height="500" viewBox="0 0 500 500"><rect width="100%" height="100%" fill="#012B28" fill-opacity="1"/><svg viewBox="260.7863 203.6385 468.6583 182" width="333" height="129.3180980684648" x="83.5px" y="185.341px" xmlns="http://www.w3.org/2000/svg" xmlns:xlink="http://www.w3.org/1999/xlink" preserveAspectRatio="none"><defs></defs><style>.companyName {fill:#EBB42C;fill-opacity:1;}.icon2 {fill:#E7240E;fill-opacity:1;}.icon3 {fill:#B47049;fill-opacity:1;}.icon3-str {stroke:#B47049;stroke-opacity:1;}</style><g opacity="1" transform="rotate(0 260.7863 363.6385)">
<svg width="468.6583" height="22" x="260.7863" y="363.6385" version="1.1" preserveAspectRatio="none" viewBox="0.8 -28.48 616.9200000000001 28.96">
  <g transform="matrix(1 0 0 1 0 0)" class="companyName"><path id="id-D6z1nYkh15" d="M11.52 0L15.16 0L15.16-25.80L25.88-25.80L25.88-28L0.80-28L0.80-25.80L11.52-25.80L11.52 0Z M51.12 0L51.12-13.92L67.88-13.92L67.88 0L71.52 0L71.52-28L67.88-28L67.88-15.76L51.12-15.76L51.12-28L47.48-28L47.48 0L51.12 0Z M115.20-28L97.12-28L97.12 0L115.20 0L115.20-2.20L100.76-2.20L100.76-13.92L113.16-13.92L113.16-15.76L100.76-15.76L100.76-25.80L115.20-25.80L115.20-28Z M173.92 0L177.56 0L177.56-25.80L188.28-25.80L188.28-28L163.20-28L163.20-25.80L173.92-25.80L173.92 0Z M218.96-28L209.88-28L209.88 0L213.52 0L213.52-12.36L215.28-12.36Q216.40-12.36 217.14-12.16Q217.88-11.96 218.48-11.48Q219.08-11 219.60-10.24Q220.12-9.48 220.84-8.36L220.84-8.36L224-3.68Q224.60-2.76 225.18-2Q225.76-1.24 226.44-0.70Q227.12-0.16 227.98 0.16Q228.84 0.48 230.04 0.48L230.04 0.48Q230.92 0.48 231.48 0.40Q232.04 0.32 232.60 0L232.60 0L232.60-1.48Q232.40-1.44 232.20-1.42Q232-1.40 231.80-1.40L231.80-1.40Q230.96-1.40 230.32-1.64Q229.68-1.88 229.12-2.34Q228.56-2.80 228.04-3.46Q227.52-4.12 226.96-4.96L226.96-4.96Q225.28-7.40 224.36-8.86Q223.44-10.32 222.90-11.12Q222.36-11.92 222.02-12.28Q221.68-12.64 221.20-12.88L221.20-12.88L220.80-13.08L220.80-13.24Q222.72-13.36 224.10-14.08Q225.48-14.80 226.36-15.88Q227.24-16.96 227.64-18.22Q228.04-19.48 228.04-20.68L228.04-20.68Q228.04-21.76 227.62-23.04Q227.20-24.32 226.18-25.42Q225.16-26.52 223.40-27.26Q221.64-28 218.96-28L218.96-28ZM213.52-14.16L213.52-26.24L217.56-26.24Q219.08-26.24 220.30-25.80Q221.52-25.36 222.40-24.58Q223.28-23.80 223.74-22.72Q224.20-21.64 224.20-20.36L224.20-20.36Q224.20-19.28 223.78-18.18Q223.36-17.08 222.52-16.18Q221.68-15.28 220.46-14.72Q219.24-14.16 217.64-14.16L217.64-14.16L213.52-14.16Z M256.36-8.24L270.16-8.24L274 0L277.88 0L264.84-28L262.84-28L251.00 0L252.84 0L256.36-8.24ZM263.04-23.52L269.32-10.04L257.12-10.04L262.88-23.52L263.04-23.52Z M297.00-28L292.68-28L304.40 0L306.80 0L318.16-28L316.08-28L306.76-4.96L306.60-4.96L297.00-28Z M358.24-28L340.16-28L340.16 0L358.24 0L358.24-2.20L343.80-2.20L343.80-13.92L356.20-13.92L356.20-15.76L343.80-15.76L343.80-25.80L358.24-25.80L358.24-28Z M398.32 0L380.24 0L380.24-28L383.88-28L383.88-2.20L398.32-2.20L398.32 0Z M475.08-4.08L473.88-5.16Q469.80-1.32 464.20-1.32L464.20-1.32Q461.08-1.32 458.68-2.40Q456.28-3.48 454.68-5.28Q453.08-7.08 452.26-9.44Q451.44-11.80 451.44-14.36L451.44-14.36Q451.44-17.08 452.30-19.34Q453.16-21.60 454.72-23.24Q456.28-24.88 458.42-25.80Q460.56-26.72 463.08-26.72L463.08-26.72Q464.80-26.72 466.22-26.32Q467.64-25.92 468.74-25.28Q469.84-24.64 470.54-23.82Q471.24-23 471.52-22.16L471.52-22.16L474.48-22.16Q473.88-23.52 472.94-24.68Q472.00-25.84 470.60-26.68Q469.20-27.52 467.32-28Q465.44-28.48 463.04-28.48L463.04-28.48Q459.56-28.48 456.70-27.48Q453.84-26.48 451.80-24.62Q449.76-22.76 448.64-20.14Q447.52-17.52 447.52-14.28L447.52-14.28Q447.52-11.48 448.42-8.82Q449.32-6.16 451.20-4.10Q453.08-2.04 456.00-0.78Q458.92 0.48 462.96 0.48L462.96 0.48Q465.52 0.48 467.54 0Q469.56-0.48 471.06-1.18Q472.56-1.88 473.56-2.68Q474.56-3.48 475.08-4.08L475.08-4.08Z M505.76-28L496.68-28L496.68 0L500.32 0L500.32-12.36L502.08-12.36Q503.20-12.36 503.94-12.16Q504.68-11.96 505.28-11.48Q505.88-11 506.40-10.24Q506.92-9.48 507.64-8.36L507.64-8.36L510.80-3.68Q511.40-2.76 511.98-2Q512.56-1.24 513.24-0.70Q513.92-0.16 514.78 0.16Q515.64 0.48 516.84 0.48L516.84 0.48Q517.72 0.48 518.28 0.40Q518.84 0.32 519.40 0L519.40 0L519.40-1.48Q519.20-1.44 519.00-1.42Q518.80-1.40 518.60-1.40L518.60-1.40Q517.76-1.40 517.12-1.64Q516.48-1.88 515.92-2.34Q515.36-2.80 514.84-3.46Q514.32-4.12 513.76-4.96L513.76-4.96Q512.08-7.40 511.16-8.86Q510.24-10.32 509.70-11.12Q509.16-11.92 508.82-12.28Q508.48-12.64 508.00-12.88L508.00-12.88L507.60-13.08L507.60-13.24Q509.52-13.36 510.90-14.08Q512.28-14.80 513.16-15.88Q514.04-16.96 514.44-18.22Q514.84-19.48 514.84-20.68L514.84-20.68Q514.84-21.76 514.42-23.04Q514.00-24.32 512.98-25.42Q511.96-26.52 510.20-27.26Q508.44-28 505.76-28L505.76-28ZM500.32-14.16L500.32-26.24L504.36-26.24Q505.88-26.24 507.10-25.80Q508.32-25.36 509.20-24.58Q510.08-23.80 510.54-22.72Q511.00-21.64 511.00-20.36L511.00-20.36Q511.00-19.28 510.58-18.18Q510.16-17.08 509.32-16.18Q508.48-15.28 507.26-14.72Q506.04-14.16 504.44-14.16L504.44-14.16L500.32-14.16Z M559.48-28L541.40-28L541.40 0L559.48 0L559.48-2.20L545.04-2.20L545.04-13.92L557.44-13.92L557.44-15.76L545.04-15.76L545.04-25.80L559.48-25.80L559.48-28Z M581.56-28L577.88-28L587.80 0L590.20 0L597.84-21.88L598.04-21.88L605.44 0L607.80 0L617.72-28L615.88-28L607.60-4.64L607.44-4.64L599.64-28L597.92-28L589.96-4.76L589.80-4.76L581.56-28Z"/></g>
</svg>
</g><g opacity="1" transform="rotate(0 445.1155 203.6385)">
<svg width="100" height="100" x="445.1155" y="203.6385" version="1.1" preserveAspectRatio="none" viewBox="20 20 160 160">
  <g transform="matrix(1 0 0 1 0 0)"><g><path d="M180 100c0 44.2-35.8 80-80 80s-80-35.8-80-80 35.8-80 80-80 80 35.8 80 80z" data-color="1" class="companyName"></path><path d="M37.5 54.2c.2 0 .4 0 .6-.1.6-.1 1.3-.2 1.9-.3-.1.2-.2.4-.3.5-.9 1.8-.3 4 1.5 4.9.5.3 1.1.4 1.7.4 1.3 0 2.6-.7 3.2-1.9.7-1.3 2-2.5 3.7-3.3-.4.5-.7 1-1 1.6-.9 1.8-.2 4 1.5 4.9.5.3 1.1.4 1.7.4 1.3 0 2.6-.7 3.2-1.9l.6-.9c-.4.8-.5 1.8-.2 2.6.3.9.9 1.7 1.8 2.1 1.2.6 2.5.6 3.6-.2 0 .2.1.5.1.7.3.9.9 1.7 1.8 2.1.9.5 2.1.6 3 .2.1 1.8 1.5 3.2 3.3 3.3.1.8.4 1.5 1 2.1-2.4.2-4.7.6-7 1.2-6.9 1.8-13.1 5.4-18.4 10.6-.4.3-.8.7-1.1 1.1-3.8 4-6.9 8.7-9.4 14-.8 1.8 0 4 1.8 4.8.5.2 1 .3 1.5.3 1.4 0 2.7-.8 3.3-2.1.1-.3.2-.5.4-.8.2.5.5 1.1.7 1.6.6 1.2 1.9 2 3.2 2 2 0 3.6-1.6 3.6-3.6 0-.6-.1-1.1-.4-1.7-.5-1-.9-2.1-1-3.3.2.6.5 1.2.8 1.8.6 1.2 1.9 2 3.2 2 2 0 3.6-1.6 3.6-3.6 1.1.8 2.6.9 3.8.3.7-.4 1.3-1 1.7-1.8 1.1.7 2.4.7 3.6.1.6-.3 1-.7 1.4-1.3 1.2 1 3 1 4.3.1 1.4 1.2 3.4 1.2 4.8.1 1 1 2.4 1.4 3.8.9-3.6 4.2-6.5 9-8.5 14.2-2.4 6.3-3.5 12.9-3.1 19.6 0 .6.1 1.3.1 1.9.5 5.1 1.8 10.2 4 14.9.8 1.8 3 2.6 4.8 1.8.9-.4 1.6-1.1 1.9-2 .3-.9.3-1.9-.1-2.8-.2-.4-.3-.8-.5-1.2.6.1 1.1.2 1.7.3 2 .2 3.7-1.3 3.9-3.2.2-2-1.3-3.7-3.3-3.9-.9-.1-1.8-.4-2.6-.9.8.2 1.6.4 2.4.4 2 .2 3.7-1.3 3.9-3.3.1-1.2-.4-2.4-1.3-3.1 1.5-.4 2.5-1.7 2.7-3.2.1-.7-.1-1.5-.5-2.1 1.3-.5 2.3-1.7 2.4-3.1.1-.6 0-1.2-.3-1.7 1.6-.4 2.7-1.9 2.7-3.6 1.5-.4 2.6-1.7 2.8-3.2v-.8c1.6-.3 2.9-1.6 3-3.3.2-2-1.3-3.7-3.3-3.9-2.8-.2-5-2.5-5.3-5.2.4-.4.8-.7 1.2-1.1-.2-.4-.3-.9-.3-1.3 0-.3-.1-.7-.1-1 0-.4.1-.8.1-1.2V92c-1.4 1.1-2.7 2.3-3.9 3.6-.2 2.3.5 4.5 2 6.3.9 1.1 2 1.8 3.2 2.4.8.3 1.6.6 2.5.7h.2c.4 0 .7.4.7.8s-.3.7-.7.7h-.1c-2.7-.2-5.2-1.5-6.9-3.6-1.3-1.6-2.1-3.5-2.3-5.5v-.1c-.6.7-1.1 1.3-1.6 2 0 .1.1.2.1.3-.4 4.8 3.1 9 7.9 9.4.4 0 .7.4.7.8s-.3.6-.7.7h-.1c-5-.4-8.8-4.4-9.2-9.2v-.1c-.5.7-.9 1.4-1.3 2.1-.4 4.7 3.2 8.9 7.9 9.3.4 0 .7.4.6.8 0 .4-.3.6-.7.6H85c-4.6-.4-8.3-3.9-9.1-8.3v-.1c-.4.8-.8 1.5-1.1 2.3v.1c-.4 4.8 3.1 9 7.9 9.4.4 0 .7.4.7.8s-.3.6-.7.7h-.1c-4.5-.4-8-3.6-9-7.8v-.1c-.3.7-.5 1.4-.7 2.2v.1c-.4 4.8 3.1 9 7.9 9.4.4 0 .7.4.6.8 0 .4-.3.6-.7.6h-.1c-4.1-.4-7.5-3.2-8.7-6.9v-.1c-.1.7-.3 1.4-.4 2.2v.3c-.4 4.8 3.1 9 7.9 9.4.4 0 .7.3.7.7 0 .4-.3.7-.7.7h-.1c-3.6-.3-6.7-2.5-8.2-5.6l-.1.2v2.2c.1.1.1.2.1.4v.6c0 .5.1 1 .1 1.6.6 3.8 3.8 6.9 7.8 7.2.4 0 .7.4.7.8s-.3.6-.7.7c-2.7-.2-5.1-1.5-6.9-3.5l-.1-.1c.6 3 1.6 5.8 2.8 8.6.2.4 0 .8-.4 1-.1 0-.2.1-.3.1-.3 0-.5-.2-.7-.4-2-4.5-3.3-9.2-3.7-14.1-.1-.6-.1-1.1-.1-1.7-.4-6.3.6-12.6 2.9-18.4 3.1-8.2 8.5-15.2 15.5-20.2.3-.5.7-.9 1.2-1.2-.4 0-.8-.1-1.2-.2-.6-.2-1.2-.4-1.8-.8-2 1.4-3.8 3-5.6 4.7.2-.9.1-1.8-.3-2.6-1.7-3.3-1.3-7.5.7-9.8l2.1.6c.1-.5.2-1 .4-1.5.2-.4.4-.8.7-1.2-1.3-.4-2.7-.8-4-1-3.9 2.9-5 9.2-2.4 14.2.2.4 0 .8-.3 1-.1 0-.2.1-.3.1-.3 0-.5-.2-.6-.4-2.7-5.2-1.8-11.7 1.8-15.2-.2 0-.4 0-.6-.1-.6-.4-1.2-.4-1.8-.5h-.5c-.1.1-.1.2-.2.2-4 2.8-5.2 9.3-2.5 14.3.2.4 0 .8-.3 1-.1 0-.2.1-.3.1-.3 0-.5-.2-.6-.4-2.7-5.2-1.8-11.8 1.9-15.3h-.3c-.7 0-1.5 0-2.2.1h-.2c-3.9 2.9-5 9.2-2.4 14.3.2.4 0 .8-.3 1-.1 0-.2.1-.3.1-.3 0-.5-.2-.6-.4-2.5-4.9-1.9-11 1.3-14.6-.9.1-1.8.3-2.7.5l-.1.1c-4 2.8-5.2 9.3-2.5 14.3.2.4 0 .8-.3 1-.1 0-.2.1-.3.1-.3 0-.5-.2-.6-.4-2.5-4.7-1.9-10.6 1-14.3-.8.3-1.6.5-2.3.8 0 0 0 .1-.1.1-4 2.8-5.2 9.3-2.5 14.3.2.4 0 .8-.3 1-.1 0-.2.1-.3.1-.3 0-.5-.2-.6-.4-2.3-4.4-2-9.8.4-13.5l-2.1 1.2c-.1.1-.1.2-.2.2-4 2.8-5.2 9.3-2.5 14.3.2.4 0 .8-.3 1-.1 0-.2.1-.3.1-.3 0-.5-.2-.6-.4-2-3.9-2-8.5-.4-12v-.1c-.6.5-1.2 1-1.8 1.6 0 .1-.1.2-.2.3-.2.1-.4.3-.6.5l-1 1c-2.7 3.2-3.2 8.5-.9 12.8.2.4 0 .8-.3 1-.1 0-.2.1-.3.1-.3 0-.5-.2-.6-.4-1.5-2.9-1.9-6.2-1.3-9.2v-.1c-2 2.7-3.7 5.6-5 8.6-.1.2-.4.4-.6.4-.4 0-.7-.3-.7-.7 0-.1 0-.2.1-.3 2.3-5.1 5.3-9.5 8.8-13.2.3-.4.7-.7 1-1.1 4.9-4.8 10.7-8.2 17.2-9.9 1.5-.4 3.1-.7 4.7-.9h.3c.6-.1 1.3-.1 1.9-.2h.6c.8 0 1.6-.1 2.3 0 .7 0 1.4 0 2.1.1h.6l2.4.3c.4.1.8.1 1.2.2l1.2.3c.5.1.9.2 1.4.3.2.1.4.1.7.2.6.2 1.3.4 1.9.6.5-.4 1-.8 1.6-1.1.6-.3 1.3-.5 2-.6-2.5-1-5-1.8-7.6-2.3 1.8-1.5 4.6-2.5 7.4-2.5.4 0 .9 0 1.3.1 1.3 1.8 2.4 3.7 3.3 5.7 1 .6 1.8 1.4 2.4 2.3.1 0 .2-.1.3-.1.3-.1.7-.2 1-.2-1.1-3.7-3-7.2-5.5-10.4-.2 0-.4-.1-.6-.1-.2 0-.3-.1-.5-.1s-.4 0-.6-.1h-1.2c-4.9 0-9.7 2.4-11.6 6.1-.1.2-.4.4-.6.4-.4 0-.7-.3-.7-.7 0-.1 0-.2.1-.3 1.9-3.6 6.3-6.1 11-6.7.6-.1 1.2-.1 1.9-.1h1.5l-1.8-1.8h-.4c-.2-.1-.5-.1-.7-.1-.2 0-.3-.1-.5-.1s-.4 0-.6-.1h-1.2c-.6 0-1.1 0-1.7.1-4.2.5-8.2 2.7-9.9 6-.1.2-.4.4-.6.4-.4 0-.7-.3-.7-.7 0-.1 0-.2.1-.3 1.9-3.6 6.3-6.2 11-6.7.6-.1 1.3-.1 1.9-.1h1.5c-.6-.5-1.3-1-1.9-1.5-.2 0-.4-.1-.6-.1-.2 0-.3-.1-.5-.1s-.4 0-.6-.1h-1.2c-4.9 0-9.7 2.4-11.6 6.1-.1.2-.4.4-.6.4-.4 0-.7-.3-.7-.7 0-.1 0-.2.1-.3 1.9-3.6 6.3-6.2 11-6.7.6-.1 1.3-.1 1.9-.1h.4c-.7-.5-1.5-.9-2.2-1.3h-.1c-.2-.1-.5-.1-.7-.1-.2 0-.3-.1-.5-.1s-.4 0-.6-.1h-1.3c-.6 0-1.1 0-1.7.1-4.2.5-8.2 2.7-9.9 6-.1.2-.4.4-.6.4-.4 0-.7-.3-.7-.7 0-.1 0-.2.1-.3 1.9-3.5 6.1-6 10.7-6.7.6-.1 1.2-.1 1.9-.2l-2.1-.9h-.1c-.2-.1-.5-.1-.7-.1-.2 0-.3-.1-.5-.1s-.4 0-.6-.1h-1.3c-.6 0-1.1 0-1.7.1-4.2.5-8.2 2.7-9.9 6-.1.2-.4.4-.6.4-.4 0-.7-.3-.7-.7 0-.1 0-.2.1-.3 2-3.7 6.5-6.3 11.3-6.7-.8-.2-1.5-.5-2.3-.7h-.1c-.2-.1-.5-.1-.7-.1-.2 0-.3-.1-.5-.1s-.4 0-.6-.1h-1.3c-.6 0-1.1 0-1.7.1-4.2.5-8.2 2.7-9.9 6-.1.2-.4.4-.6.4-.4 0-.7-.3-.7-.7 0-.1 0-.2.1-.3 1.7-3.2 5.3-5.6 9.4-6.4-.2 0-.5-.1-.7-.1h-.3c-.4-.1-.9-.1-1.4-.2H59c-.3 0-.5-.1-.8-.1-.4 0-.8-.1-1.2-.1-.4 0-.8-.1-1.2-.1h-.1c-.5 0-1.1.1-1.6.1-4.1.6-8 2.8-9.6 5.9-.1.2-.4.4-.6.4-.4 0-.7-.3-.7-.7 0-.1 0-.2.1-.3 1.3-2.4 3.6-4.3 6.5-5.5h-.6c-.5 0-1.1 0-1.6.1-.4 0-.8.1-1.3.1-.6 0-1.2.1-1.8.1-.3 0-.6.1-.9.1-1.6.2-3.3.4-5 .7h-.1c-.3 0-.6-.2-.7-.6-.1-.4.2-.8.6-.8 4-.7 8-1.1 12-1.1h1.8c.8 0 1.7 0 2.5.1h.7c.3 0 .7 0 1 .1h.4c.6 0 1.2.1 1.8.2h.1c2 .2 4 .5 6 .9 8.1 1.6 15.4 4.6 21.3 8.8 7 5 11.8 11.4 13.9 18.7h.4c2.1-7.3 6.8-13.7 13.9-18.8 5.9-4.2 13.3-7.2 21.3-8.8 2-.4 4-.7 6-.9.7-.1 1.3-.2 2-.2h.8c.5 0 .9-.1 1.4-.1.7 0 1.3 0 2-.1h4.2c3.3.1 6.6.5 10 1.1.4 0 .7.4.7.8s-.4.7-.8.7h-.2c-2.1-.4-4.1-.6-6.2-.8-.2 0-.5 0-.7-.1-1.1-.1-2.2-.1-3.3-.2h-.9c2.8 1.2 5.2 3.1 6.5 5.5.2.4.1.8-.3 1-.1 0-.2.1-.3.1-.3 0-.5-.1-.6-.4-1.3-2.5-3.9-4.3-6.9-5.3-.1 0-.2-.1-.2-.1l-.9-.3c-.4-.1-.8-.2-1.2-.2-.2 0-.4-.1-.6-.1-.4 0-.8-.1-1.2-.1h-.7c-.8.1-1.6.1-2.3.2h-.6l-.5.1c-.6.1-1.3.2-1.9.3h-.1c4.1.9 7.7 3.2 9.4 6.4.2.4.1.8-.3 1-.1 0-.2.1-.3.1-.3 0-.5-.1-.6-.4-1.3-2.5-3.9-4.3-6.9-5.3-.8-.3-1.6-.4-2.5-.6-.7-.1-1.4-.2-2.1-.2h-.3c-.4 0-.8 0-1.2.1h-.1c-.5.1-1 .1-1.5.2h-.1c-.8.2-1.6.4-2.3.7.2 0 .3 0 .5.1.6.1 1.1.2 1.7.3.1 0 .2.1.3.1 3.8 1 7.2 3.3 8.8 6.3.2.4.1.8-.3 1-.1 0-.2.1-.3.1-.3 0-.5-.1-.6-.4-1.3-2.5-3.9-4.3-6.9-5.3-.1 0-.2-.1-.3-.1-.4-.1-.8-.2-1.3-.3-1-.2-2-.3-3-.3h-.3c-.5 0-.9 0-1.4.1-.5.1-1 .1-1.5.2h-.1l-2.1.9h.2c.5 0 .9.1 1.4.1.2 0 .4.1.7.1.4.1.9.2 1.3.3.5.1.9.2 1.4.4 3.3 1.1 6.2 3.2 7.6 6 .2.4.1.8-.3 1-.1 0-.2.1-.3.1-.3 0-.5-.1-.6-.4-1.3-2.5-3.9-4.3-6.9-5.3-.1 0-.2-.1-.3-.1-.4-.1-.8-.2-1.3-.3-1-.2-2-.3-3-.3h-.3c-.4 0-.8 0-1.2.1h-.1c-.5.1-1 .1-1.5.2h-.1c-.8.4-1.5.9-2.2 1.3h.5c1.1 0 2.3.1 3.4.4.6.1 1.2.3 1.8.5 3.3 1.1 6.2 3.2 7.7 6 .2.4.1.8-.3 1-.1 0-.2.1-.3.1-.3 0-.5-.1-.6-.4-1.3-2.5-3.9-4.3-6.9-5.3-.1 0-.3-.1-.4-.1l-1.2-.3c-.5-.1-1-.2-1.5-.2-.5-.1-1-.1-1.5-.1h-.2c-.4 0-.8 0-1.2.1h-.1c-.5 0-1 .1-1.4.2-.7.5-1.3 1-2 1.5h.2c.4 0 .8-.1 1.2-.1h.3c.8 0 1.5.1 2.3.2.8.1 1.6.3 2.3.5.2.1.4.1.5.2 3.3 1.1 6.2 3.2 7.7 6 .2.4.1.8-.3 1-.1 0-.2.1-.3.1-.3 0-.5-.1-.6-.4-1.3-2.5-3.9-4.3-6.9-5.3-.1 0-.2-.1-.3-.1-.4-.1-.8-.2-1.3-.3-.3-.1-.6-.1-.9-.2-.7-.1-1.4-.2-2.1-.2h-.3c-.4 0-.8 0-1.2.1h-.1c-.5.1-1 .1-1.5.2h-.4l-1.8 1.8h1.5c1.1 0 2.2.1 3.3.4.4.1.9.2 1.3.3.2.1.4.1.5.2 3.3 1.1 6.2 3.2 7.7 6 .2.4.1.8-.3 1-.1 0-.2.1-.3.1-.3 0-.5-.1-.6-.4-1.3-2.5-3.9-4.3-6.9-5.3-.1 0-.2-.1-.4-.1l-1.2-.3c-1-.2-2-.3-3-.3h-.2c-.4 0-.8 0-1.2.1h-.1c-.5 0-1 .1-1.5.2-2.1 2.6-3.8 5.6-5 8.8l.1-.1c1.1-.8 2.4-1.3 3.8-1.4.8-1.6 1.7-3.2 2.8-4.6.4-.1.9-.1 1.3-.1 2.8 0 5.5 1 7.4 2.5-2.9.6-5.7 1.5-8.5 2.7.6.2 1.2.6 1.7 1 .4.3.7.6 1 1 3.4-1.3 6.9-2.1 10.4-2.3h.1c.8-.1 1.7-.1 2.5-.1h2c.4 0 .8 0 1.2.1.3 0 .6.1.9.1.5 0 1 .1 1.5.2h.3c1.3.2 2.6.5 3.9.8 6.5 1.7 12.3 5.1 17.2 9.9.4.3.7.7 1 1.1 3.5 3.7 6.5 8.1 8.8 13.2.2.4 0 .8-.4 1-.1 0-.2.1-.3.1-.3 0-.5-.2-.7-.4-1.4-3-3-5.8-4.9-8.5l-.1-.1c.6 3 .3 6.4-1.3 9.3-.1.2-.4.4-.6.4-.4 0-.7-.3-.7-.7 0-.1 0-.2.1-.3 2.2-4.3 1.7-9.6-.9-12.8-.3-.4-.7-.7-1-1-.2-.2-.4-.3-.6-.5-.1-.1-.2-.2-.2-.3-.6-.5-1.1-1-1.7-1.5l-.1-.1c1.7 3.6 1.7 8.2-.3 12.1-.1.2-.4.4-.6.4-.4 0-.7-.3-.7-.7 0-.1 0-.2.1-.3 2.6-5.1 1.5-11.5-2.5-14.3-.1-.1-.2-.1-.2-.2-.7-.4-1.3-.8-2-1.1l-.1-.1c2.4 3.7 2.7 9.1.4 13.5-.1.2-.4.4-.6.4-.4 0-.7-.3-.7-.7 0-.1 0-.2.1-.3 2.6-5.1 1.5-11.5-2.5-14.3 0 0 0-.1-.1-.1-.7-.3-1.5-.6-2.2-.8h-.1c2.9 3.7 3.5 9.5 1 14.3-.1.2-.4.4-.6.4-.4 0-.7-.3-.7-.7 0-.1 0-.2.1-.3 2.6-5.1 1.5-11.5-2.5-14.3l-.1-.1c-.2 0-.3-.1-.5-.1-.4-.1-.7-.1-1.1-.2-.3-.1-.7-.1-1-.2h-.1c3.2 3.7 3.9 9.7 1.3 14.7-.1.2-.4.4-.6.4-.4 0-.7-.3-.7-.7 0-.1 0-.2.1-.3 2.6-5 1.5-11.4-2.4-14.3h-.4c-.6 0-1.2-.1-1.8-.1h-.5c3.7 3.5 4.6 10.1 1.9 15.3-.1.2-.4.4-.6.4-.4 0-.7-.3-.7-.7 0-.1 0-.2.1-.3 2.6-5.1 1.5-11.5-2.5-14.3-.1-.1-.2-.1-.2-.2h-.2c-.9.1-1.8.1-2.6.3 3.6 3.6 4.5 10 1.8 15.2-.1.2-.4.4-.6.4-.4 0-.7-.3-.7-.7 0-.1 0-.2.1-.3 2.6-5 1.5-11.4-2.4-14.2-1.9.4-3.8.9-5.7 1.6.3.5.4 1 .6 1.5.1.4.2.9.2 1.4 1.3-.5 2.7-.9 4.1-1.3 2 2.3 2.4 6.5.7 9.8-.3.7-.5 1.4-.4 2.2-1.9-1.9-4-3.6-6.2-5.1.6.7 1.1 1.6 1.4 2.5.2.6.3 1.3.3 2v.4c5.8 4.8 10.3 11.1 13.1 18.3 2.3 5.9 3.2 12.2 2.9 18.4 0 .6 0 1.1-.1 1.7-.5 4.9-1.7 9.6-3.7 14.1-.1.2-.4.4-.6.4-.4 0-.7-.3-.7-.7 0-.1 0-.2.1-.3 1.2-2.7 2.2-5.6 2.8-8.5v-.1c-1.7 2.1-4.2 3.4-6.9 3.6h-.1c-.4 0-.7-.3-.8-.7s.3-.7.7-.8h.3c3.8-.5 6.8-3.4 7.5-7.2 0-.5.1-1 .1-1.6v-.6c0-.1 0-.3.1-.4V125c-1.2 2.6-3.5 4.5-6.2 5.3h-.1c-.3.1-.6.2-.9.2-.2 0-.3 0-.5.1-.2 0-.4.1-.6.1h-.1c-.4 0-.7-.3-.7-.7 0-.4.3-.7.7-.7 4.8-.4 8.3-4.6 7.9-9.4v-.3l-.3-2.1v-.1c-1 3.1-3.5 5.5-6.6 6.5-.1 0-.1 0-.2.1l-1.5.3c-.1 0-.3 0-.4.1h-.1c-.4 0-.7-.3-.8-.7 0-.4.3-.7.7-.8 4.8-.4 8.3-4.6 7.9-9.4v-.1c-.2-.7-.4-1.4-.7-2v-.1c-.4 1.6-1.1 3-2.1 4.3-1.7 2.1-4.2 3.4-6.9 3.6h-.1c-.4 0-.7-.3-.8-.7 0-.4.3-.7.7-.8 2.3-.2 4.4-1.3 5.9-3.1s2.2-4 2-6.3v-.1c-.3-.7-.7-1.5-1-2.2l-.1-.1c-.6 3.4-2.9 6.3-6.1 7.6-.2.1-.4.1-.6.2-.7.2-1.3.4-2 .5h-.4c-.4 0-.7-.3-.8-.7 0-.4.3-.7.7-.8 4.7-.4 8.3-4.6 7.9-9.3-.4-.7-.8-1.4-1.3-2l-.1-.1c-.2 2.1-1 4.1-2.3 5.7-1.7 2.1-4.2 3.4-6.9 3.6h-.1c-.4 0-.7-.3-.7-.7 0-.4.3-.7.6-.7 2.3-.2 4.4-1.3 5.9-3.1s2.2-4 2-6.3c0-.1 0-.2.1-.3-.5-.7-1-1.3-1.6-2l-.1-.1c-.3 3.7-2.7 6.9-6.1 8.4-.2.1-.5.2-.7.3-.7.2-1.4.4-2.1.5h-.4c-.4 0-.7-.3-.8-.7 0-.4.3-.7.7-.8 4.7-.4 8.3-4.6 7.9-9.3-.9-1-1.9-1.9-3-2.8-.3.9-.8 1.8-1.4 2.6.5.5 1.1 1 1.6 1.5-.2 2.7-2.4 5-5.3 5.2-2 .2-3.5 1.9-3.3 3.9.1 1.7 1.4 3 3 3.3v.8c.1 1.6 1.2 2.8 2.8 3.2 0 1.7 1.1 3.1 2.7 3.6-.2.5-.3 1.1-.3 1.7.1 1.4 1.1 2.6 2.4 3.1-.4.6-.5 1.4-.5 2.1.1 1.5 1.2 2.8 2.7 3.2-.9.8-1.4 1.9-1.3 3.1.2 2 1.9 3.5 3.9 3.3.8-.1 1.6-.2 2.4-.4-.8.5-1.7.8-2.6.9-2 .2-3.5 1.9-3.3 3.9.2 2 1.9 3.5 3.9 3.3.6 0 1.1-.1 1.7-.3-.2.4-.3.8-.5 1.2-.8 1.8 0 4 1.8 4.8.5.2 1 .3 1.5.3 1.4 0 2.7-.8 3.3-2.1 2.1-4.7 3.5-9.7 4-14.9.1-.6.1-1.3.1-1.9.4-6.7-.7-13.3-3.1-19.6-2-5.2-4.8-9.9-8.4-14.1 1.2.2 2.5-.2 3.3-1 .7.6 1.5.9 2.4.9.9 0 1.8-.3 2.4-.9 1.3.9 3 .8 4.3-.1.3.5.8 1 1.4 1.3 1.1.6 2.5.5 3.6-.1.6 1.3 1.9 2.2 3.3 2.2.8 0 1.5-.2 2.1-.7 0 2 1.6 3.6 3.6 3.6 1.4 0 2.6-.8 3.2-2 .3-.6.6-1.2.8-1.8-.1 1.1-.5 2.2-1 3.3-.9 1.8-.2 4 1.6 4.9.5.3 1.1.4 1.7.4 1.4 0 2.6-.8 3.2-2 .3-.5.5-1.1.7-1.6.1.3.2.5.4.8.6 1.3 1.9 2.1 3.3 2.1 2 0 3.6-1.6 3.6-3.6 0-.5-.1-1-.3-1.5-2.5-5.4-5.6-10.1-9.4-14-.4-.4-.7-.8-1.1-1.1-5.3-5.2-11.5-8.8-18.4-10.6-2.2-.6-4.4-1-6.6-1.2.6-.6.9-1.3 1-2.1 1.8-.2 3.2-1.6 3.3-3.3 1 .4 2.1.3 3-.2.9-.4 1.5-1.2 1.8-2.1.1-.2.1-.5.1-.7 1.1.7 2.5.8 3.6.2 1.7-.9 2.4-3 1.6-4.8l.6.9c.6 1.2 1.9 1.9 3.2 1.9.6 0 1.2-.1 1.7-.4 1.8-.9 2.4-3.1 1.5-4.9-.3-.5-.6-1.1-1-1.6 1.6.8 3 2 3.7 3.3.6 1.2 1.9 1.9 3.2 1.9.6 0 1.2-.1 1.7-.4 1.8-.9 2.4-3.1 1.5-4.9-.1-.2-.2-.4-.3-.5.6.1 1.3.2 1.9.3 2 .3 3.8-1 4.2-2.9.2-.9-.1-1.9-.6-2.7-.6-.8-1.4-1.3-2.3-1.5-4.5-.8-9-1.2-13.6-1.2-1.8 0-3.5.1-5.2.2-.8 0-1.6.1-2.4.2-2.1.2-4.1.5-6.1.9-8.5 1.6-16.2 4.9-22.4 9.3-5.4 3.9-9.6 8.6-12.4 13.9-2.8-5.3-7-10-12.4-13.9-6.2-4.4-14-7.6-22.4-9.3-2-.4-4.1-.7-6.1-.9-.8-.1-1.6-.2-2.4-.2-1.7-.1-3.5-.2-5.2-.2-4.5 0-9 .4-13.6 1.2-1 .2-1.8.7-2.3 1.5-.6.8-.8 1.8-.6 2.7-2.9 1.3-1.4 2.5.4 2.5z" data-color="2" class="icon2"></path><path d="M91.2 83.7c.1-.6.2-1.1.4-1.7.1-.4.3-.8.5-1.1.2-.4.5-.8.8-1.2.4-.4.8-.8 1.3-1.1.1-.1.2-.1.3-.2-1-1.5-2.7-2.4-4.6-2.4-.3 0-.6 0-.9.1-.8.1-1.5.4-2.2.9-.4.3-.8.7-1.2 1.1-.3.3-.5.7-.7 1.1-.2.5-.4 1-.4 1.5 0 .3-.1.5-.1.8 0 2.2 1.3 4 3.1 4.9.7.3 1.4.5 2.1.6h.3c.5 0 1-.1 1.5-.2-.1-.2-.2-.5-.2-.7-.1-.5-.2-1-.2-1.6v-.2c.1-.3.2-.4.2-.6zm-2.1-5.9c-.1 0-.1 0 0 0z" data-color="2" class="icon2"></path><path d="M89.1 77.8c-.1 0-.1 0 0 0" data-color="2" class="icon2"></path><path d="M102.9 79.4c.3.3.6.6.8.9.3.4.5.8.7 1.2.2.5.4 1.1.5 1.6 0 .3.1.6.1.9h.5c.6 0 1.2.1 1.8.3.8.2 1.5.5 2.1 1 1.1-1 1.7-2.4 1.7-3.9v-.1c0-.4-.1-.8-.2-1.2-.1-.5-.3-1-.6-1.5-.2-.4-.5-.8-.9-1.2l-1.2-.9c-.7-.4-1.5-.6-2.3-.7h-.3c-.4 0-.8 0-1.1.1-.5.1-1 .3-1.4.5-.8.4-1.4 1-1.9 1.7.4.2.8.5 1.2.7.1.3.3.4.5.6z" data-color="2" class="icon2"></path><path d="M101.7 95c.3.3.7.6 1.1.8.8.5 1.7.7 2.6.7 1.6 0 3.1-.7 4.1-1.8.7-.7 1.1-1.6 1.3-2.6V92c.1-.3.1-.6.1-1 0-.3 0-.5-.1-.8-.2-1.1-.7-2.2-1.5-3l-.3-.3c-.1-.1-.2-.1-.3-.2-.2-.2-.5-.3-.7-.4l-.6-.3c-.6-.3-1.3-.4-2-.4-.2 0-.4 0-.6.1 0 .2-.1.4-.2.7 0 .1-.1.3-.1.4-.1.2-.2.5-.3.7 0 .1-.1.1-.1.2-.1.1-.1.3-.2.4-.2.2-.3.5-.5.7-.5.6-1.1 1.1-1.7 1.5-.5.3-1.1.6-1.8.8.3.7.5 1.5.5 2.3.4.6.8 1.2 1.3 1.6z" data-color="2" class="icon2"></path><path d="M99.4 89.7c.2 0 .3-.1.5-.2.1 0 .2-.1.3-.1.9-.4 1.7-1.1 2.3-1.9.1-.2.2-.4.3-.5v-.1c.1-.2.2-.4.3-.7 0-.1 0-.2.1-.2 0-.1.1-.2.1-.4 0-.1 0-.3.1-.4 0-.3.1-.5.1-.8 0-.7-.1-1.4-.4-2-.2-.4-.4-.8-.7-1.2-.5-.7-1.2-1.3-2-1.6l-.1-.1c-.2-.1-.3-.1-.5-.2s-.4-.2-.6-.2H99c-.3 0-.5-.1-.8-.1h-.5c-.3 0-.7.1-1 .2h-.1c-.2.1-.5.1-.7.2-.1 0-.1.1-.2.1-.5.3-1 .6-1.5 1-.3.4-.6.7-.9 1.2-.2.4-.4.7-.5 1.1-.2.5-.3 1-.3 1.6 0 .3 0 .5.1.8 0 .3.1.6.2.9 0 .1.1.2.1.3 0 .1.1.2.1.3h.5c.3 0 .5 0 .8.1s.5.1.8.1h.1c1.2.3 2.3.9 3.2 1.8.1.1.2.3.3.4.2.2.3.4.5.6h.2z" data-color="2" class="icon2"></path><path d="M89 90.7c-.5.8-.8 1.8-.9 2.8v.2c0 .4.1.9.2 1.3.6 2.4 2.7 4.2 5.3 4.2.7 0 1.4-.1 2-.4.7-.3 1.3-.7 1.8-1.2.4-.4.8-.9 1.1-1.5.4-.7.6-1.5.6-2.4v-.1c0-.8-.2-1.6-.5-2.3 0 0 0-.1-.1-.1-.1-.2-.2-.4-.4-.6-.2-.3-.4-.5-.6-.8l-.1-.1c-.5-.5-1.1-.9-1.8-1.2-.5-.2-1-.3-1.5-.3-.2 0-.4-.1-.6-.1h-.9c-.1 0-.2 0-.3.1-1.3.4-2.5 1.2-3.3 2.5 0-.1 0-.1 0 0z" data-color="2" class="icon2"></path><path d="M101.6 158V96.8c-.5-.4-1-.8-1.4-1.3l-.3.9c-.3.8-.8 1.5-1.4 2.1-.3.3-.7.6-1.1.9-.2.2-.5.3-.7.4v58.1c-13.6.3-26.4 4-37.5 10.3 12 7.2 26.1 11.4 41.2 11.4 13.8 0 27.3-3.5 39.3-10.3-11.2-6.8-24.2-10.8-38.1-11.3z" data-color="2" class="icon2"></path></g></g>
</svg>
</g></svg></svg>