<svg version="1.1" preserveAspectRatio="none" xmlns="http://www.w3.org/2000/svg" width="500" height="500" viewBox="0 0 500 500"><rect width="100%" height="100%" fill="#5CB8FF" fill-opacity="1"/><svg viewBox="360.6914 213.6159 395.5348 207.1827" width="333" height="174.42672326177114" x="83.5px" y="162.7866px" xmlns="http://www.w3.org/2000/svg" xmlns:xlink="http://www.w3.org/1999/xlink" preserveAspectRatio="none"><defs></defs><style>.companyName {fill:#FFFFFF;fill-opacity:1;}.icon1 {fill:#005477;fill-opacity:1;}.icon2 {fill:#FFFFFF;fill-opacity:1;}.icon3 {fill:#0017EB;fill-opacity:1;}.icon3-str {stroke:#0017EB;stroke-opacity:1;}</style><g opacity="1" transform="rotate(0 360.6914 380.7986)">
<svg width="395.5348" height="40" x="360.6914" y="380.7986" version="1.1" preserveAspectRatio="none" viewBox="0.6 -31 311.67999999999995 31.52">
  <g transform="matrix(1 0 0 1 0 0)" class="companyName"><path id="id-D6z1nYkh15" d="M3.52-29.36L3.52-29.36L25.76-29.36Q27.04-29.36 27.64-29.06Q28.24-28.76 28.44-28.12Q28.64-27.48 28.64-26.44Q28.64-25.40 28.44-24.78Q28.24-24.16 27.76-23.92L27.76-23.92Q27.04-23.56 25.72-23.56L25.72-23.56L18.08-23.56L18.08-3.44Q18.08-2.52 18.02-2.08Q17.96-1.64 17.66-1.06Q17.36-0.48 16.60-0.24Q15.84 0 14.60 0Q13.36 0 12.62-0.24Q11.88-0.48 11.58-1.06Q11.28-1.64 11.22-2.10Q11.16-2.56 11.16-3.48L11.16-3.48L11.16-23.56L3.48-23.56Q2.20-23.56 1.60-23.86Q1-24.16 0.80-24.80Q0.60-25.44 0.60-26.48Q0.60-27.52 0.80-28.14Q1-28.76 1.48-29L1.48-29Q2.20-29.36 3.52-29.36Z M42.52-21L42.52-21Q46.52-21 49.18-17.96Q51.84-14.92 51.84-10.52L51.84-10.52L51.84-3.48Q51.84-2.56 51.78-2.10Q51.72-1.64 51.40-1.04L51.40-1.04Q50.88 0 48.32 0L48.32 0Q45.88 0 45.28-1.04L45.28-1.04Q44.96-1.64 44.90-2.12Q44.84-2.60 44.84-3.56L44.84-3.56L44.84-10.56Q44.84-12.20 43.92-13.12Q43-14.04 41.58-14.04Q40.16-14.04 39.08-13.18Q38-12.32 37.84-11.24L37.84-11.24L37.84-3.48Q37.84-2.56 37.78-2.10Q37.72-1.64 37.40-1.04L37.40-1.04Q36.88 0 34.32 0L34.32 0Q31.80 0 31.24-1.08L31.24-1.08Q30.96-1.68 30.90-2.12Q30.84-2.56 30.84-3.52L30.84-3.52L30.84-27.44Q30.84-28.36 30.90-28.82Q30.96-29.28 31.24-29.84L31.24-29.84Q31.80-30.92 34.36-30.92L34.36-30.92Q36.88-30.92 37.40-29.84L37.40-29.84Q37.72-29.24 37.78-28.78Q37.84-28.32 37.84-27.40L37.84-27.40L37.84-18.56Q39.84-21 42.52-21Z M75.36-13.06Q75.36-10.60 74.14-9.42Q72.92-8.24 71.44-8.24L71.44-8.24L61.96-8.24Q61.96-7.12 63.28-6.36Q64.60-5.60 65.92-5.60L65.92-5.60Q68.24-5.60 69.56-6.08L69.56-6.08L70-6.24Q70.96-6.68 71.60-6.68L71.60-6.68Q72.88-6.68 73.80-4.88L73.80-4.88Q74.32-3.80 74.32-3.04L74.32-3.04Q74.32 0.52 65.80 0.52L65.80 0.52Q62.84 0.52 60.54-0.50Q58.24-1.52 56.96-3.20L56.96-3.20Q54.44-6.44 54.44-10.44L54.44-10.44Q54.44-15.48 57.70-18.50Q60.96-21.52 65.84-21.52L65.84-21.52Q71.40-21.52 74-17.60L74-17.60Q75.36-15.52 75.36-13.06ZM61.88-11.88L66.92-11.88Q68.44-11.88 68.44-13.16L68.44-13.16Q68.44-14.08 67.74-14.64Q67.04-15.20 65.74-15.20Q64.44-15.20 63.16-14.14Q61.88-13.08 61.88-11.88L61.88-11.88Z M90-29.36L90-29.36L112.24-29.36Q113.52-29.36 114.12-29.06Q114.72-28.76 114.92-28.12Q115.12-27.48 115.12-26.44Q115.12-25.40 114.92-24.78Q114.72-24.16 114.24-23.92L114.24-23.92Q113.52-23.56 112.20-23.56L112.20-23.56L104.56-23.56L104.56-3.44Q104.56-2.52 104.50-2.08Q104.44-1.64 104.14-1.06Q103.84-0.48 103.08-0.24Q102.32 0 101.08 0Q99.84 0 99.10-0.24Q98.36-0.48 98.06-1.06Q97.76-1.64 97.70-2.10Q97.64-2.56 97.64-3.48L97.64-3.48L97.64-23.56L89.96-23.56Q88.68-23.56 88.08-23.86Q87.48-24.16 87.28-24.80Q87.08-25.44 87.08-26.48Q87.08-27.52 87.28-28.14Q87.48-28.76 87.96-29L87.96-29Q88.68-29.36 90-29.36Z M126.84-20.84Q127.60-20.60 128.10-20.02Q128.60-19.44 128.60-18.16Q128.60-16.88 127.84-15.36Q127.08-13.84 125.64-13.84L125.64-13.84Q124.92-13.84 124.26-14.16Q123.60-14.48 122.52-14.48Q121.44-14.48 120.50-13.72Q119.56-12.96 119.56-11.88L119.56-11.88L119.56-3.48Q119.56-2.56 119.50-2.10Q119.44-1.64 119.12-1.04L119.12-1.04Q118.52 0 116 0L116 0Q114.08 0 113.24-0.68L113.24-0.68Q112.60-1.24 112.52-2.40L112.52-2.40Q112.52-2.80 112.52-3.56L112.52-3.56L112.52-17.60Q112.52-18.52 112.58-18.98Q112.64-19.44 112.92-20L112.92-20Q113.48-21.08 116.04-21.08L116.04-21.08Q118.44-21.08 119.04-20.16L119.04-20.16Q119.48-19.52 119.48-18.84L119.48-18.84Q119.68-19.12 120.06-19.52Q120.44-19.92 121.68-20.60Q122.92-21.28 123.86-21.28Q124.80-21.28 125.44-21.18Q126.08-21.08 126.84-20.84Z M143.28-18.84L143.28-18.84Q143.52-21.08 146.44-21.08L146.44-21.08Q148-21.08 148.76-20.84Q149.52-20.60 149.82-20Q150.12-19.40 150.18-18.94Q150.24-18.48 150.24-17.56L150.24-17.56L150.24-3.56Q150.24-2.64 150.18-2.18Q150.12-1.72 149.84-1.12L149.84-1.12Q149.28-0.08 147.10-0.08Q144.92-0.08 144.18-0.62Q143.44-1.16 143.32-2.20L143.32-2.20Q141.84-0.08 138.38-0.08Q134.92-0.08 131.96-3.24Q129-6.40 129-10.58Q129-14.76 131.98-17.90Q134.96-21.04 138.52-21.04L138.52-21.04Q139.88-21.04 141-20.56Q142.12-20.08 142.56-19.66Q143-19.24 143.28-18.84ZM136-10.52Q136-9.20 137.04-8.14Q138.08-7.08 139.56-7.08Q141.04-7.08 142.02-8.16Q143-9.24 143-10.54Q143-11.84 142.06-12.96Q141.12-14.08 139.54-14.08Q137.96-14.08 136.98-12.96Q136-11.84 136-10.52Z M174.08-20.60L174.08-20.60Q176.16-19.36 176.16-17.96L176.16-17.96Q176.16-17.16 175.36-15.76L175.36-15.76L167.08-1.56Q166.68-0.88 165.80-0.34Q164.92 0.20 164.06 0.20Q163.20 0.20 162.42-0.22Q161.64-0.64 161.32-1.08L161.32-1.08L160.96-1.52L152.64-15.76Q151.84-17.08 151.84-17.92L151.84-17.92Q151.84-19.36 153.92-20.60L153.92-20.60Q155.44-21.48 156.32-21.48Q157.20-21.48 157.70-20.94Q158.20-20.40 158.76-19.32L158.76-19.32L164.00-9.24L169.24-19.32Q169.68-20.08 169.90-20.42Q170.12-20.76 170.60-21.10Q171.08-21.44 171.88-21.44Q172.68-21.44 174.08-20.60Z M197.48-13.06Q197.48-10.60 196.26-9.42Q195.04-8.24 193.56-8.24L193.56-8.24L184.08-8.24Q184.08-7.12 185.40-6.36Q186.72-5.60 188.04-5.60L188.04-5.60Q190.36-5.60 191.68-6.08L191.68-6.08L192.12-6.24Q193.08-6.68 193.72-6.68L193.72-6.68Q195-6.68 195.92-4.88L195.92-4.88Q196.44-3.80 196.44-3.04L196.44-3.04Q196.44 0.52 187.92 0.52L187.92 0.52Q184.96 0.52 182.66-0.50Q180.36-1.52 179.08-3.20L179.08-3.20Q176.56-6.44 176.56-10.44L176.56-10.44Q176.56-15.48 179.82-18.50Q183.08-21.52 187.96-21.52L187.96-21.52Q193.52-21.52 196.12-17.60L196.12-17.60Q197.48-15.52 197.48-13.06ZM184-11.88L189.04-11.88Q190.56-11.88 190.56-13.16L190.56-13.16Q190.56-14.08 189.86-14.64Q189.16-15.20 187.86-15.20Q186.56-15.20 185.28-14.14Q184-13.08 184-11.88L184-11.88Z M200.08-8.44L200.08-27.48Q200.08-28.40 200.14-28.86Q200.20-29.32 200.48-29.92L200.48-29.92Q201.04-31 203.60-31L203.60-31Q206.04-31 206.64-29.92L206.64-29.92Q206.96-29.32 207.02-28.84Q207.08-28.36 207.08-27.44L207.08-27.44L207.08-8.92Q207.08-7.48 207.32-7.10Q207.56-6.72 208.38-6.72Q209.20-6.72 209.48-6.66Q209.76-6.60 210.16-6.32L210.16-6.32Q210.96-5.80 210.96-3.48L210.96-3.48Q210.96-0.96 210.16-0.40L210.16-0.40Q209.12 0.32 205.20-0.16L205.20-0.16Q202.12-0.56 201.20-2.20L201.20-2.20Q200.08-4.16 200.08-8.44L200.08-8.44Z M229.88-10.54Q229.88-8.84 231.00-7.90Q232.12-6.96 233.38-6.96Q234.64-6.96 235.74-7.70Q236.84-8.44 237.52-8.44L237.52-8.44Q238.72-8.44 240.44-6.32L240.44-6.32Q241.36-5.16 241.36-4.24L241.36-4.24Q241.36-2.72 239.16-1.40L239.16-1.40Q236.88 0.20 233.56 0.20L233.56 0.20Q229.84 0.20 226.40-2.48L226.40-2.48Q224.76-3.76 223.72-5.90Q222.68-8.04 222.68-10.62Q222.68-13.20 223.72-15.30Q224.76-17.40 226.40-18.68L226.40-18.68Q229.72-21.32 233.48-21.32L233.48-21.32Q235.00-21.32 236.44-20.90Q237.88-20.48 238.56-20.08L238.56-20.08L239.20-19.68Q239.92-19.20 240.32-18.92L240.32-18.92Q241.36-18.12 241.36-17.10Q241.36-16.08 240.52-14.80L240.52-14.80Q239.08-12.60 237.76-12.60L237.76-12.60Q237.00-12.60 235.60-13.48L235.60-13.48Q234.88-14.16 233.54-14.16Q232.20-14.16 231.04-13.20Q229.88-12.24 229.88-10.54Z M258.28-20.84Q259.04-20.60 259.54-20.02Q260.04-19.44 260.04-18.16Q260.04-16.88 259.28-15.36Q258.52-13.84 257.08-13.84L257.08-13.84Q256.36-13.84 255.70-14.16Q255.04-14.48 253.96-14.48Q252.88-14.48 251.94-13.72Q251.00-12.96 251.00-11.88L251.00-11.88L251.00-3.48Q251.00-2.56 250.94-2.10Q250.88-1.64 250.56-1.04L250.56-1.04Q249.96 0 247.44 0L247.44 0Q245.52 0 244.68-0.68L244.68-0.68Q244.04-1.24 243.96-2.40L243.96-2.40Q243.96-2.80 243.96-3.56L243.96-3.56L243.96-17.60Q243.96-18.52 244.02-18.98Q244.08-19.44 244.36-20L244.36-20Q244.92-21.08 247.48-21.08L247.48-21.08Q249.88-21.08 250.48-20.16L250.48-20.16Q250.92-19.52 250.92-18.84L250.92-18.84Q251.12-19.12 251.50-19.52Q251.88-19.92 253.12-20.60Q254.36-21.28 255.30-21.28Q256.24-21.28 256.88-21.18Q257.52-21.08 258.28-20.84Z M281.36-13.06Q281.36-10.60 280.14-9.42Q278.92-8.24 277.44-8.24L277.44-8.24L267.96-8.24Q267.96-7.12 269.28-6.36Q270.60-5.60 271.92-5.60L271.92-5.60Q274.24-5.60 275.56-6.08L275.56-6.08L276.00-6.24Q276.96-6.68 277.60-6.68L277.60-6.68Q278.88-6.68 279.80-4.88L279.80-4.88Q280.32-3.80 280.32-3.04L280.32-3.04Q280.32 0.52 271.80 0.52L271.80 0.52Q268.84 0.52 266.54-0.50Q264.24-1.52 262.96-3.20L262.96-3.20Q260.44-6.44 260.44-10.44L260.44-10.44Q260.44-15.48 263.70-18.50Q266.96-21.52 271.84-21.52L271.84-21.52Q277.40-21.52 280.00-17.60L280.00-17.60Q281.36-15.52 281.36-13.06ZM267.88-11.88L272.92-11.88Q274.44-11.88 274.44-13.16L274.44-13.16Q274.44-14.08 273.74-14.64Q273.04-15.20 271.74-15.20Q270.44-15.20 269.16-14.14Q267.88-13.08 267.88-11.88L267.88-11.88Z M309.72-20.92L309.72-20.92Q312.28-19.80 312.28-18.16L312.28-18.16Q312.28-17.48 311.64-15.98Q311.00-14.48 310.56-13.36L310.56-13.36L306.16-2.64Q305.56-0.88 304.16-0.16L304.16-0.16Q303.56 0.12 302.64 0.12Q301.72 0.12 300.86-0.58Q300.00-1.28 299.72-2L299.72-2L299.40-2.68Q299.08-3.48 297.04-8.92L297.04-8.92Q296.64-7.96 295.86-5.78Q295.08-3.60 294.86-3.06Q294.64-2.52 294.58-2.34Q294.52-2.16 294.24-1.68Q293.96-1.20 293.60-0.84L293.60-0.84Q292.64 0.12 291.40 0.12Q290.16 0.12 289.32-0.58Q288.48-1.28 288.20-2L288.20-2L282.16-16.72Q281.76-17.92 281.76-18.28L281.76-18.28Q281.76-19.88 284.04-20.80L284.04-20.80Q285.32-21.32 286.12-21.32Q286.92-21.32 287.42-20.98Q287.92-20.64 288.12-20.30Q288.32-19.96 288.44-19.60L288.44-19.60Q289.12-18 291.28-12.08L291.28-12.08L293.64-18.56Q293.88-19.36 294.52-19.96L294.52-19.96Q295.68-21.12 296.88-21.12Q298.08-21.12 298.94-20.48Q299.80-19.84 300.12-19.20L300.12-19.20L300.44-18.52Q302.44-12.92 302.80-12.12L302.80-12.12L305.24-18.76Q306.20-21.32 308.12-21.32L308.12-21.32Q308.88-21.32 309.72-20.92Z"/></g>
</svg>
</g><g opacity="1" transform="rotate(0 499.1286 213.6159)">
<svg width="118.6604" height="127.1827" x="499.1286" y="213.6159" version="1.1" preserveAspectRatio="none" viewBox="33.19793701171875 28.399999618530273 133.60157775878906 143.19703674316406">
  <g transform="matrix(1 0 0 1 0 0)"><g><path d="M130.025 141.296s4.007 8.443 1.233 13.202c-2.774 4.759-7.861 9.057-11.098 10.285-3.237 1.228-12.793 4.145-12.793 4.145l-23.428 1.535-22.349-.614-11.868-1.535-6.474-2.61-4.932-4.298-2.158-5.68-.771-4.452.308-5.526 1.079-3.531 10.019 3.531 15.105 1.996s6.782.461 8.631.461c1.85 0 10.481-1.228 10.943-1.382.462-.154 10.327-2.303 10.327-2.303l3.699-1.075s8.169-3.224 12.485-3.531 7.398-.461 7.398-.461h6.782l7.862 1.843z" data-color="1" class="icon1"></path><path d="M63.623 86.921a10.493 10.493 0 0 1 6.673 1.253l-18.167 4.309a7.41 7.41 0 0 1 4.476.789L38.89 97.474c1.733-.247 3.559.27 4.885 1.591 2.234 2.225 2.234 5.866 0 8.092l-1.221 1.216 3.827-.908s6.579-1.566 12.194-2.92c-.08.088-.138.188-.223.272l-1.555 1.549 4.875-1.156s6.114-1.456 12.353-2.954c-.439.755-.944 1.482-1.592 2.127l-2.202 2.193s5.246-1.004 6.901-1.637c5.189-1.984 8.162-4.433 21.066-7.079 8.678-1.78 15.337-1.673 15.015-1.673 5.399-2.759 7.55-9.415 4.78-14.792-1.522-2.954-4.228-4.924-7.251-5.649 0 0-14.337 1.209-18.806 2.269-7.311 1.732-28.313 8.906-28.313 8.906z" data-color="2" class="icon2"></path><path d="M128.701 108.517c-1.756-3.408-4.876-5.68-8.363-6.516 0 0-11.323.959-23.848 3.227-1.832.332-4.468 1.035-7.428 1.915a9.203 9.203 0 0 0-1.736-.612l-18.525 4.394a7.05 7.05 0 0 0-4.048-2.728l-30.136 7.148c2-.285 4.105.311 5.635 1.835 2.577 2.566 2.577 6.766 0 9.333l-1.408 1.402 4.414-1.047s8.558-2.038 15.253-3.654c.199 2.384-.573 4.835-2.395 6.649l-1.794 1.786 5.622-1.334s11.046-2.63 19.598-4.696c.282 3.374-.813 6.844-3.39 9.411l-2.539 2.529s6.038-1.19 7.96-1.888c5.301-1.925 10.286-5.144 21.18-7.764 10.06-2.419 20.811-2.331 20.435-2.331 6.227-3.179 8.708-10.857 5.513-17.059z" data-color="2" class="icon2"></path><path d="M38.565 83.982a4.964 4.964 0 0 1 0 7.019l-1.059 1.055 3.319-.787s17.681-4.21 17.355-4.21c1.395-.713 2.319-1.971 2.688-3.38 6.577-1.574 15.4-3.698 15.138-3.698a6.74 6.74 0 0 0 3.62-5.195c2.282-.69 4.767-1.39 7.567-2.065 6.63-1.598 11.858-1.631 11.605-1.631 4.683-2.393 6.549-8.167 4.146-12.831-1.32-2.563-3.667-4.271-6.289-4.9 0 0-7.753.462-13.257 1.596-6.896 1.421-27.615 8.099-27.615 8.099 2.712-.387 5.567.422 7.642 2.489 1.148 1.144 1.881 2.535 2.275 4l-20.077 4.762c1.916-.273 3.933.298 5.398 1.758a6.25 6.25 0 0 1 1.434 2.241l-18.126 4.299c1.502-.215 3.085.234 4.236 1.379z" data-color="2" class="icon2"></path><path d="M41.837 148.251a.923.923 0 0 1-.925.921.923.923 0 0 1-.925-.921c0-.509.414-.921.925-.921.51 0 .925.412.925.921z" data-color="3" class="icon3"></path><path d="M48.028 151.157a.923.923 0 0 1-.925.921.923.923 0 0 1-.925-.921c0-.509.414-.921.925-.921.51 0 .925.412.925.921z" data-color="3" class="icon3"></path><path d="M55.856 153.567a.923.923 0 0 1-.925.921.923.923 0 0 1-.925-.921c0-.509.414-.921.925-.921.51 0 .925.412.925.921z" data-color="3" class="icon3"></path><path d="M64.396 154.984a.923.923 0 0 1-.925.921.923.923 0 0 1-.925-.921c0-.509.414-.921.925-.921.51 0 .925.412.925.921z" data-color="3" class="icon3"></path><path d="M72.508 155.126a.923.923 0 0 1-.925.921.923.923 0 0 1-.925-.921c0-.509.414-.921.925-.921.51 0 .925.412.925.921z" data-color="3" class="icon3"></path><path d="M80.906 153.992a.923.923 0 0 1-.925.921.923.923 0 0 1-.925-.921c0-.509.414-.921.925-.921.51 0 .925.412.925.921z" data-color="3" class="icon3"></path><path d="M88.307 151.44a.923.923 0 0 1-.925.921.923.923 0 0 1-.925-.921c0-.509.414-.921.925-.921.51 0 .925.412.925.921z" data-color="3" class="icon3"></path><path d="M94.854 149.031a.923.923 0 0 1-.925.921.923.923 0 0 1-.925-.921c0-.509.414-.921.925-.921.51 0 .925.412.925.921z" data-color="3" class="icon3"></path><path d="M102.682 145.912a.923.923 0 0 1-.925.921.923.923 0 0 1-.925-.921c0-.509.414-.921.925-.921.51 0 .925.412.925.921z" data-color="3" class="icon3"></path><path d="M110.794 143.927a.923.923 0 0 1-.925.921.923.923 0 0 1-.925-.921c0-.509.414-.921.925-.921.51 0 .925.412.925.921z" data-color="3" class="icon3"></path><path d="M119.618 143.36a.923.923 0 0 1-.925.921.923.923 0 0 1-.925-.921c0-.509.414-.921.925-.921.51 0 .925.412.925.921z" data-color="3" class="icon3"></path><path d="M166.744 128.315a1.143 1.143 0 0 0-1.434-.729l-36.993 11.991c-5.282-1.624-17.966-3.809-35.92 4.026-1.304.3-2.591.541-3.877.779V134.03c3.669-1.618 7.973-3.374 14.511-4.946 9.527-2.29 19.676-2.284 20.14-2.299.241.011.431-.053.614-.159 6.753-3.495 9.418-11.803 5.94-18.554-1.837-3.566-5.157-6.153-9.11-7.101a1.19 1.19 0 0 0-.362-.027c-.113.009-11.521.99-23.954 3.24-1.8.326-4.348 1.002-7.193 1.841-.188-.082-.393-.131-.586-.204v-4.233c2.516-.821 5.647-1.673 9.919-2.549 7.997-1.637 14.309-1.659 14.742-1.648.226.007.448-.051.637-.164 5.917-3.074 8.249-10.359 5.199-16.281-1.612-3.13-4.528-5.4-7.998-6.233-.119-.027-.244-.035-.361-.027-.589.049-14.474 1.227-18.974 2.295-.881.209-1.959.497-3.164.837v-4.155c5.309-1.177 9.479-1.348 10.301-1.369.18-.004.351-.051.505-.128l.001.004a10.598 10.598 0 0 0 5.295-6.226 10.556 10.556 0 0 0-.656-8.133c-1.418-2.753-3.982-4.751-7.035-5.484a1.132 1.132 0 0 0-.335-.029c-.223.012-3.963.24-8.076.761V29.534c0-.627-.509-1.134-1.139-1.134s-1.139.507-1.139 1.134v23.842c-1.052.16-2.091.339-3.066.54-2.502.516-6.744 1.697-11.167 3.003v-7.54c0-.627-.509-1.134-1.139-1.134s-1.139.507-1.139 1.134v8.218a831.35 831.35 0 0 0-14.291 4.449 1.134 1.134 0 0 0-.759 1.336c.135.571.691.939 1.271.866 2.503-.37 4.934.432 6.676 2.166a7.742 7.742 0 0 1 1.617 2.381l-9.126 2.165v-3.437c0-.627-.509-1.134-1.139-1.134-.629 0-1.139.507-1.139 1.134V71.5l-7.475 1.773c-.593.14-.968.72-.855 1.316.115.594.675.986 1.281.91 1.652-.239 3.276.284 4.431 1.435.211.21.386.44.553.674L34.073 81.57c-.593.14-.968.72-.855 1.316.113.594.681.986 1.28.91a3.796 3.796 0 0 1 4.391 3.768 3.793 3.793 0 0 1-1.12 2.707l-1.059 1.054a1.132 1.132 0 0 0 .805 1.935c.087 0 .176-.011.264-.031l3.32-.786c5.277-1.256 9.048-2.117 11.743-2.743v1.521l-.968.23c-.593.14-.968.72-.855 1.316.051.266.201.482.396.643l-12.779 3.031c-.593.14-.968.72-.855 1.313a1.15 1.15 0 0 0 1.279.913c1.476-.217 2.9.255 3.921 1.271a4.544 4.544 0 0 1 1.342 3.243 4.55 4.55 0 0 1-1.342 3.245l-1.221 1.216a1.132 1.132 0 0 0 .805 1.935c.088 0 .176-.011.264-.031l3.827-.908c3.613-.86 6.585-1.568 9.06-2.163.006.176.007.354.097.515a1.142 1.142 0 0 0 1.258.549l4.876-1.156s3.442-.82 7.786-1.86v1.025l-.295.294a1.13 1.13 0 0 0-.201 1.333c.113.211.292.359.496.462v1.977l-.504.119c-1.099-1.244-2.535-2.168-4.198-2.567a1.181 1.181 0 0 0-.529 0l-30.137 7.147c-.593.14-.968.72-.855 1.316.115.596.674.99 1.28.91 1.756-.248 3.451.299 4.669 1.513a5.46 5.46 0 0 1 0 7.73l-1.409 1.402a1.132 1.132 0 0 0 .805 1.935c.088 0 .176-.011.264-.031l4.415-1.048a6989.56 6989.56 0 0 0 9.31-2.22v18.77c-8.022-1.313-13.725-3.152-15.811-3.885l-.027-.018a1.126 1.126 0 0 0-.558-.192c-.196-.072-.303-.114-.303-.114l.026.151c-.079.013-.16.001-.236.031-.355.142-.615.45-.693.824-4.282 20.465 7.246 24.97 7.553 25.063 6.759 4.002 19.66 5.147 32.204 5.147 16.108 0 31.627-1.887 32.79-2.033 12.178-2.122 20.085-6.547 23.503-13.15 3.896-7.531.41-14.972.26-15.287-.034-.07-.114-.102-.161-.163l34.623-11.223a1.13 1.13 0 0 0 .73-1.426zm-70.038-21.898c11.457-2.075 22.033-3.061 23.554-3.196 3.229.824 5.933 2.963 7.44 5.887 2.898 5.626.692 12.543-4.915 15.48-3.787-.323-14.518.904-20.287 2.29-7.65 1.841-12.504 4.007-16.403 5.745-1.702.76-3.31 1.477-4.9 2.055-.821.299-2.477.7-4.054 1.052 4.93-5.094 4.874-13.236-.171-18.259a12.843 12.843 0 0 0-5.501-3.249c7.124-2.503 19.825-6.826 25.237-7.805zm-24.086 31.75a1.138 1.138 0 0 0 1.225.578c.25-.049 6.147-1.216 8.129-1.936 1.411-.512 2.817-1.126 4.268-1.771v9.739a99.431 99.431 0 0 1-14.233 1.232v-17.335l2.92-.7 3.547-.853c-.105 2.61-1.123 5.192-3.119 7.181l-2.54 2.529a1.132 1.132 0 0 0-.197 1.336zM86.243 105.7l-14.233 3.376v-1.628c1.717-.354 4.383-.937 5.541-1.381 1.342-.514 2.539-1.056 3.792-1.626 1.439-.654 2.977-1.345 4.9-2.062v3.321zm5.968-26.513c4.063-.963 16.752-2.08 18.451-2.226 2.746.711 5.047 2.532 6.329 5.021 2.47 4.795.597 10.689-4.171 13.205-3.441-.259-12.313 1.114-14.841 1.632-9.749 1.998-13.911 3.889-17.582 5.557-1.211.551-2.366 1.076-3.663 1.573-.595.228-1.778.527-3.016.808a11.352 11.352 0 0 0 2.885-7.601c0-3.065-1.192-5.942-3.356-8.098a11.28 11.28 0 0 0-4.26-2.673c6.674-2.228 18.242-6.015 23.224-7.198zm-29.683 8.071c.137.569.67.932 1.269.857a9.606 9.606 0 0 1 2.314-.041l-10.99 2.606v-1.518c1.905-.458 2.997-.758 3.59-1.024 1.423-.729 2.481-1.945 3.049-3.43 3.328-.796 5.919-1.422 7.973-1.931v.966a929.308 929.308 0 0 0-6.468 2.176c-.555.19-.875.77-.737 1.339zm9.482-4.267v-.788c1.753-.453 2.952-.79 3.716-1.054.213-.062.714-.277.714-.277 2.164-1.106 3.623-2.957 4.136-5.109a139.586 139.586 0 0 1 5.668-1.552v4.268c-4.368 1.296-9.756 3.035-14.234 4.512zm-7.77-18.18a9.954 9.954 0 0 0-3.225-2.153c6.553-2.058 17.922-5.553 22.623-6.523 4.909-1.01 11.752-1.486 12.922-1.561 2.336.609 4.291 2.159 5.381 4.275a8.31 8.31 0 0 1 .514 6.401 8.338 8.338 0 0 1-3.946 4.786c-1.365.049-5.97.303-11.573 1.655-5.955 1.435-10.703 3.021-14.52 4.295-1.895.633-3.616 1.207-5.227 1.681-.479.142-1.301.346-2.183.554a9.988 9.988 0 0 0 2.188-6.277 9.999 9.999 0 0 0-2.954-7.133zm-13.61 9.546l14.195-3.367c.038.316.093.629.093.953a7.74 7.74 0 0 1-2.287 5.526l-1.91 1.903a1.129 1.129 0 0 0-.193 1.347 1.139 1.139 0 0 0 1.243.562c.187-.04 4.569-.999 6.066-1.44 1.636-.481 3.382-1.063 5.306-1.705 1.483-.495 3.08-1.018 4.754-1.549-.503.999-1.277 1.87-2.342 2.43-1.314.372-13.693 3.34-21.905 5.296l-.707.168a7.45 7.45 0 0 0-1.103-9.15 7.652 7.652 0 0 0-1.21-.974zm-10.057 15.88l-.02.004a6.063 6.063 0 0 0 .615-2.678 6.04 6.04 0 0 0-1.787-4.312 6.005 6.005 0 0 0-.543-.481l12.827-3.042a5.165 5.165 0 0 1-1.44 4.544l-1.35 1.344a1.132 1.132 0 0 0 .805 1.935c.088 0 .176-.011.264-.031l4.23-1.003 4.335-1.032c-.242.22-.479.445-.774.603-1.138.318-10.773 2.628-17.162 4.149zm17.383 13.364c-3.8.915-8.235 1.976-11.828 2.832l-.394.093a6.82 6.82 0 0 0 .866-3.344 6.79 6.79 0 0 0-2.009-4.846 6.858 6.858 0 0 0-.906-.76l12.799-3.036c.384.239.746.517 1.074.843 2.258 2.249 2.372 5.802.398 8.218zm3.463.577l-1.183.28c-.009-.011-.02-.02-.028-.031 2.207-3.272 1.864-7.757-1.039-10.648a8.327 8.327 0 0 0-1.719-1.318l12.66-3.002a9.065 9.065 0 0 1 1.531 1.204 9.105 9.105 0 0 1 2.689 6.494c0 1.491-.388 2.904-1.049 4.186-4.012.962-8.273 1.98-11.862 2.835zM74 110.934a591.998 591.998 0 0 0-8.389 2.965c-.547.199-.855.78-.713 1.342s.683.913 1.265.846c3.441-.485 6.794.598 9.195 2.988a10.662 10.662 0 0 1 2.981 5.745 6735.394 6735.394 0 0 1-18.647 4.466l-1.88.445a9.453 9.453 0 0 0 1.916-5.739c0-2.556-.993-4.95-2.795-6.746a9.48 9.48 0 0 0-2.341-1.708L74 110.934zm-13.779 20.557s4.247-1.012 9.512-2.271v16.797a109.105 109.105 0 0 1-14.612-1.088V132.7l5.1-1.209zm-5.1-2.156v-4.059l2.258-.546c-.167 1.666-.861 3.215-2.058 4.406l-.2.199zm-12.115-3.498l-.856.204c1.888-2.988 1.528-6.992-1.081-9.59a7.728 7.728 0 0 0-1.351-1.074l25.034-5.936c.666.19 1.251.532 1.795.931l-17.861 4.236c-.593.14-.968.72-.855 1.316a1.14 1.14 0 0 0 1.28.91c2.332-.334 4.593.405 6.212 2.016a7.179 7.179 0 0 1 1.947 3.572 5561.367 5561.367 0 0 1-14.264 3.415zm-5.848 17.636c5.977 3.619 29.304 16.113 50.532 4.906 16.233-8.561 28.73-8.653 35.807-7.525.019.074.024.15.059.221.018.035 1.066 2.214 1.309 5.404-10.472-2.764-18.541.268-32.147 5.389a675.77 675.77 0 0 1-8.093 3.008c-21.085 7.662-43.259-3.799-47.999-6.484.068-1.511.22-3.125.532-4.919zm-.575 6.192c4.329 2.387 17.592 8.939 32.731 8.939 5.113 0 10.44-.751 15.7-2.66 2.93-1.065 5.615-2.078 8.106-3.014 13.905-5.237 21.583-8.106 31.796-5.269a16.015 16.015 0 0 1-1.074 5.918c-9.869-2.332-17.587.563-31.122 5.661a676.74 676.74 0 0 1-8.095 3.008c-19.988 7.26-40.61-2.396-47.202-5.991-.526-1.802-.853-3.975-.84-6.592zm7.194 14.752c-.248-.095-3.795-1.552-5.818-6.59 5.579 2.906 17.587 8.185 31.182 8.185 5.155 0 10.536-.76 15.873-2.698 2.931-1.065 5.617-2.078 8.109-3.014 13.188-4.969 20.763-7.798 30.222-5.662a18.214 18.214 0 0 1-3.085 4.554c-5.131-.648-15.368.643-35.353 9.882-14.83.608-32.951.176-41.13-4.657zm63.52 2.927c-1.143.136-9.174 1.066-19.349 1.59 17.239-7.707 26.469-9.057 31.29-8.708-2.902 2.776-6.874 5.164-11.941 7.118zm10.103-2.685c1.759-1.225 3.276-2.549 4.568-3.962.804.245 1.344.533 1.687.771-1.762 1.217-3.862 2.275-6.255 3.191zm7.205-3.904c-.368-.307-.953-.679-1.841-.998a19.926 19.926 0 0 0 2.818-4.534c.891.266 1.795.56 2.732.914.206.083.405-.001.559-.142-1.029 1.767-2.453 3.354-4.268 4.76zm4.661-5.379c-.062.12-.154.228-.219.347.054-.267-.064-.544-.328-.644a42.045 42.045 0 0 0-2.676-.905 18.222 18.222 0 0 0 1.142-5.806c1.153.4 2.353.882 3.592 1.427-.118 1.764-.523 3.671-1.511 5.581zm-2.079-8.206a19.675 19.675 0 0 0-1.056-5.786c1.752.422 2.968.863 3.522 1.093.347.866 1.13 3.2 1.163 6.101a46.959 46.959 0 0 0-3.629-1.408z" data-color="3" class="icon3"></path><path d="M98.042 63.683a.567.567 0 0 0-.708.379 5.842 5.842 0 0 1-.747 1.542.565.565 0 0 0 .474.881.571.571 0 0 0 .474-.252 6.976 6.976 0 0 0 .89-1.843.57.57 0 0 0-.383-.707z" data-color="3" class="icon3"></path><path d="M97.487 62.084a.57.57 0 0 0 1.128-.164c-.395-2.713-2.624-4.501-2.719-4.576a.572.572 0 0 0-.798.093.564.564 0 0 0 .09.795c.019.016 1.971 1.59 2.299 3.852z" data-color="3" class="icon3"></path><path d="M113.413 87.214a.566.566 0 0 0-.708.379 5.842 5.842 0 0 1-.747 1.542.565.565 0 0 0 .474.881.571.571 0 0 0 .474-.252 6.976 6.976 0 0 0 .89-1.843.568.568 0 0 0-.383-.707z" data-color="3" class="icon3"></path><path d="M112.858 85.614a.57.57 0 0 0 1.128-.164c-.395-2.713-2.624-4.501-2.719-4.576a.572.572 0 0 0-.798.093.564.564 0 0 0 .09.795c.02.016 1.971 1.591 2.299 3.852z" data-color="3" class="icon3"></path><path d="M124.23 115.28a.566.566 0 0 0-.708.379 5.842 5.842 0 0 1-.747 1.542.565.565 0 0 0 .474.881.571.571 0 0 0 .474-.252 6.976 6.976 0 0 0 .89-1.843.57.57 0 0 0-.383-.707z" data-color="3" class="icon3"></path><path d="M123.675 113.681a.57.57 0 0 0 1.128-.164c-.395-2.713-2.624-4.501-2.719-4.576a.572.572 0 0 0-.798.093.564.564 0 0 0 .09.795c.019.016 1.971 1.591 2.299 3.852z" data-color="3" class="icon3"></path></g></g>
</svg>
</g></svg></svg>